<svg xmlns="http://www.w3.org/2000/svg" xmlns:xlink="http://www.w3.org/1999/xlink" version="1.1" id="Layer_1" x="0px" y="0px" width="100px" height="100px" viewBox="0 0 100 100" enable-background="new 0 0 100 100" xml:space="preserve">
<g>
	<path fill="#000000" d="M7.328,59.848c-0.783,0-1.418,0.634-1.418,1.417s0.635,1.417,1.418,1.417h15.094v7.112   c0,3.448,2.804,6.253,6.25,6.253h21.36c12.548,0,23.083-8.755,25.837-20.476c1.057,0.903,2.425,1.452,3.921,1.452   c2.846,0,5.234-1.978,5.875-4.629h6.008c0.782,0,1.417-0.634,1.417-1.417s-0.635-1.417-1.417-1.417h-6.008   c-0.64-2.654-3.028-4.635-5.875-4.635c-1.281,0-2.469,0.403-3.448,1.087c-1.713-12.994-12.854-23.06-26.31-23.06h-21.36   c-3.446,0-6.25,2.805-6.25,6.253v7.114H7.328c-0.783,0-1.418,0.634-1.418,1.417s0.635,1.417,1.418,1.417h15.094v20.693H7.328z    M79.79,47.76c1.772,0,3.214,1.443,3.214,3.218c0,1.771-1.441,3.212-3.214,3.212c-1.771,0-3.212-1.441-3.212-3.212   C76.578,49.203,78.02,47.76,79.79,47.76z M25.256,29.206c0-1.885,1.533-3.419,3.416-3.419h21.36   c13.075,0,23.712,10.638,23.712,23.712c0,13.076-10.637,23.714-23.712,23.714h-21.36c-1.883,0-3.416-1.534-3.416-3.419V29.206z"/>
</g>
</svg>