<svg xmlns="http://www.w3.org/2000/svg" xmlns:xlink="http://www.w3.org/1999/xlink" version="1.1" id="Layer_1" x="0px" y="0px" width="100px" height="100px" viewBox="0 0 100 100" enable-background="new 0 0 100 100" xml:space="preserve">
<g>
	<path fill="#000000" d="M85.665,49.558c-0.641-2.652-3.028-4.631-5.875-4.631c-1.281,0-2.469,0.403-3.448,1.087   c-1.713-12.996-12.854-23.062-26.31-23.062H23.839c-0.782,0-1.417,0.634-1.417,1.417c0,0.012,0,0.023,0,0.035   c-0.008,0.329,0.098,0.663,0.324,0.938c5.592,6.776,8.672,15.356,8.672,24.158c0,8.803-3.08,17.384-8.672,24.16   c-0.21,0.254-0.324,0.642-0.324,0.971c0,0.783,0.635,1.417,1.417,1.417h26.193c12.549,0,23.084-8.756,25.838-20.478   c1.057,0.903,2.424,1.452,3.92,1.452c2.847,0,5.234-1.979,5.875-4.631h6.008c0.782,0,1.417-0.634,1.417-1.417   s-0.635-1.417-1.417-1.417H85.665z M50.032,73.214H26.66c4.914-6.888,7.593-15.204,7.593-23.714s-2.68-16.826-7.594-23.714h23.373   c13.075,0,23.712,10.638,23.712,23.714S63.107,73.214,50.032,73.214z M79.79,54.188c-1.771,0-3.212-1.442-3.212-3.214   s1.441-3.214,3.212-3.214c1.772,0,3.214,1.442,3.214,3.214S81.562,54.188,79.79,54.188z"/>
	<path fill="#000000" d="M5.91,37.738c0,0.783,0.635,1.417,1.418,1.417h16.511c0.782,0,1.417-0.634,1.417-1.417   s-0.635-1.417-1.417-1.417H7.328C6.545,36.321,5.91,36.955,5.91,37.738z"/>
	<path fill="#000000" d="M7.328,62.681h16.511c0.782,0,1.417-0.634,1.417-1.417s-0.635-1.417-1.417-1.417H7.328   c-0.783,0-1.418,0.634-1.418,1.417S6.545,62.681,7.328,62.681z"/>
</g>
</svg>