<svg xmlns="http://www.w3.org/2000/svg" xmlns:xlink="http://www.w3.org/1999/xlink" version="1.1" id="Layer_1" x="0px" y="0px" width="100px" height="100px" viewBox="0 0 100 100" enable-background="new 0 0 100 100" xml:space="preserve">
<path fill="#000000" d="M91.642,48.074H71.767c-0.64-2.652-3.025-4.631-5.871-4.631c-2.522,0-4.686,1.553-5.592,3.751  c-0.342-0.92-0.879-1.769-1.593-2.462L38.232,24.905c-1.875-1.825-4.762-2.369-7.199-1.344c-2.453,1.042-4.039,3.438-4.039,6.105  v18.405H7.358c-0.782,0-1.417,0.634-1.417,1.417s0.635,1.417,1.417,1.417h19.636v18.423c0,2.662,1.586,5.058,4.05,6.106  c0.825,0.342,1.693,0.516,2.578,0.516c1.733,0,3.372-0.665,4.608-1.869l20.482-19.83c0.713-0.692,1.249-1.54,1.591-2.462  c0.906,2.199,3.07,3.753,5.592,3.753c2.846,0,5.231-1.98,5.872-4.635h19.874c0.782,0,1.417-0.634,1.417-1.417  S92.424,48.074,91.642,48.074z M56.74,52.217L36.255,72.048c-1.071,1.045-2.737,1.343-4.112,0.774  c-1.405-0.599-2.312-1.97-2.312-3.493V29.667c0-1.527,0.906-2.9,2.307-3.494c0.475-0.2,0.975-0.302,1.487-0.302  c0.991,0,1.926,0.379,2.634,1.068l20.48,19.828c0.732,0.712,1.152,1.704,1.152,2.724C57.891,50.513,57.471,51.507,56.74,52.217z   M65.896,52.709c-1.772,0-3.214-1.443-3.214-3.218c0-1.771,1.441-3.214,3.214-3.214c1.771,0,3.212,1.442,3.212,3.214  C69.107,51.266,67.666,52.709,65.896,52.709z"/>
</svg>