<svg xmlns="http://www.w3.org/2000/svg" xmlns:xlink="http://www.w3.org/1999/xlink" version="1.1" id="Layer_1" x="0px" y="0px" width="100px" height="100px" viewBox="0 0 100 100" enable-background="new 0 0 100 100" xml:space="preserve">
<g>
	<path fill="#000000" d="M91.673,48.331H76.539c-0.74-13.981-12.345-25.129-26.506-25.129H23.838c-0.782,0-1.417,0.634-1.417,1.417   c0,0.012,0.001,0.023,0.001,0.035c-0.009,0.329,0.098,0.663,0.323,0.938c5.593,6.777,8.673,15.356,8.673,24.158   c0,8.803-3.08,17.383-8.673,24.16c-0.21,0.254-0.324,0.642-0.324,0.971c0,0.783,0.635,1.417,1.417,1.417h26.195   c14.162,0,25.769-11.149,26.507-25.133h15.133c0.782,0,1.417-0.634,1.417-1.417S92.455,48.331,91.673,48.331z M50.033,73.464H26.66   c4.914-6.888,7.593-15.204,7.593-23.714c0-8.509-2.68-16.826-7.595-23.714h23.375c13.074,0,23.71,10.638,23.71,23.714   S63.107,73.464,50.033,73.464z"/>
	<path fill="#000000" d="M23.838,35.095H7.328c-0.783,0-1.418,0.634-1.418,1.417s0.635,1.417,1.418,1.417h16.51   c0.783,0,1.418-0.634,1.418-1.417S24.621,35.095,23.838,35.095z"/>
	<path fill="#000000" d="M23.838,58.62H7.328c-0.783,0-1.418,0.634-1.418,1.417s0.635,1.417,1.418,1.417h16.51   c0.783,0,1.418-0.634,1.418-1.417S24.621,58.62,23.838,58.62z"/>
</g>
</svg>