<svg xmlns="http://www.w3.org/2000/svg" xmlns:xlink="http://www.w3.org/1999/xlink" version="1.1" id="Layer_1" x="0px" y="0px" width="100px" height="100px" viewBox="0 0 100 100" enable-background="new 0 0 100 100" xml:space="preserve">
<g>
	<path fill="#000000" d="M91.673,48.299H76.54c-0.741-13.979-12.346-25.125-26.507-25.125H23.839c-0.783,0-1.418,0.634-1.418,1.417   c0,0.012,0.001,0.023,0.001,0.035c-0.009,0.329,0.098,0.663,0.324,0.938c5.592,6.772,8.671,15.352,8.671,24.156   c0,8.804-3.079,17.384-8.672,24.158c-0.209,0.254-0.324,0.644-0.324,0.973c0,0.783,0.635,1.417,1.418,1.417h26.194   c14.164,0,25.771-11.15,26.508-25.135h15.132c0.783,0,1.418-0.634,1.418-1.417S92.456,48.299,91.673,48.299z M50.033,73.434H26.659   c4.914-6.886,7.594-15.202,7.594-23.714s-2.68-16.828-7.594-23.712h23.374c13.075,0,23.712,10.638,23.712,23.712   C73.745,62.796,63.108,73.434,50.033,73.434z"/>
	<path fill="#000000" d="M17.969,23.247c-0.498-0.604-1.392-0.689-1.995-0.191s-0.689,1.393-0.19,1.996   c2.751,3.332,4.896,7.1,6.377,11.111H7.326c-0.783,0-1.417,0.635-1.417,1.418s0.634,1.418,1.417,1.418h15.755   c0.96,3.384,1.466,6.904,1.466,10.464c0,3.562-0.507,7.083-1.467,10.468H7.326c-0.783,0-1.417,0.635-1.417,1.418   c0,0.782,0.634,1.417,1.417,1.417h14.833c-1.481,4.013-3.625,7.78-6.376,11.112c-0.499,0.604-0.413,1.496,0.19,1.994   c0.265,0.219,0.584,0.325,0.901,0.325c0.408,0,0.813-0.176,1.094-0.515c6.069-7.353,9.412-16.664,9.412-26.22   C27.381,39.909,24.038,30.599,17.969,23.247z"/>
</g>
</svg>