<?xml version="1.0" encoding="UTF-8" standalone="no"?>
<!-- Created with Inkscape (http://www.inkscape.org/) -->

<svg
   xmlns:dc="http://purl.org/dc/elements/1.1/"
   xmlns:cc="http://creativecommons.org/ns#"
   xmlns:rdf="http://www.w3.org/1999/02/22-rdf-syntax-ns#"
   xmlns:svg="http://www.w3.org/2000/svg"
   xmlns="http://www.w3.org/2000/svg"
   xmlns:sodipodi="http://sodipodi.sourceforge.net/DTD/sodipodi-0.dtd"
   xmlns:inkscape="http://www.inkscape.org/namespaces/inkscape"
   version="1.1"
   width="981.08521"
   height="588.63361"
   id="svg4862"
   inkscape:version="0.47 r22583"
   sodipodi:docname="Map_of_USA_States_with_names_white.svg">
  <metadata
     id="metadata550">
    <rdf:RDF>
      <cc:Work
         rdf:about="">
        <dc:format>image/svg+xml</dc:format>
        <dc:type
           rdf:resource="http://purl.org/dc/dcmitype/StillImage" />
        <dc:title></dc:title>
      </cc:Work>
    </rdf:RDF>
  </metadata>
  <sodipodi:namedview
     pagecolor="#ffffff"
     bordercolor="#666666"
     borderopacity="1"
     objecttolerance="10"
     gridtolerance="10"
     guidetolerance="10"
     inkscape:pageopacity="0"
     inkscape:pageshadow="2"
     inkscape:window-width="1600"
     inkscape:window-height="838"
     id="namedview548"
     showgrid="false"
     inkscape:zoom="1.9138072"
     inkscape:cx="681.60289"
     inkscape:cy="419.52178"
     inkscape:window-x="-8"
     inkscape:window-y="-8"
     inkscape:window-maximized="1"
     inkscape:current-layer="svg4862" />
  <defs
     id="defs4920">
    <inkscape:perspective
       sodipodi:type="inkscape:persp3d"
       inkscape:vp_x="0 : 294.3168 : 1"
       inkscape:vp_y="0 : 1000 : 0"
       inkscape:vp_z="981.08521 : 294.3168 : 1"
       inkscape:persp3d-origin="490.5426 : 196.2112 : 1"
       id="perspective552" />
  </defs>
  <style
     type="text/css"
     id="style_css_sheet" />
  <path
     style="fill:#d3d3d3"
     id="Hawaii"
     d="m 234.08751,512.94771 1.93993,-3.55655 2.26326,-0.32332 0.32332,0.8083 -2.1016,3.07157 z m 10.18466,-3.71821 6.14313,2.58657 2.10159,-0.32332 1.61661,-3.87987 -0.64664,-3.39488 -4.2032,-0.48498 -4.04153,1.77827 z m 30.71563,10.023 3.7182,5.49647 2.42492,-0.32332 1.13163,-0.48498 1.45495,1.29329 3.71821,-0.16166 0.96997,-1.45495 -2.90991,-1.77827 -1.93993,-3.71822 -2.1016,-3.55654 -5.8198,2.9099 z m 20.20765,8.89137 1.29329,-1.93994 4.68817,0.96996 0.64665,-0.48498 6.14312,0.64664 -0.32332,1.2933 -2.58658,1.45494 -4.36485,-0.32332 z m 5.33482,5.17315 1.93994,3.87987 3.07155,-1.13163 0.32333,-1.61662 -1.61661,-2.10159 -3.71821,-0.32332 z m 6.95143,-1.13163 2.26326,-2.9099 4.68817,2.42492 4.36485,1.13163 4.36486,2.74824 0,1.93993 -3.55654,1.77828 -4.84985,0.96996 -2.42491,-1.45495 z m 16.65111,15.51947 1.61661,-1.29328 3.39489,1.61662 7.59807,3.55654 3.39489,2.10159 1.6166,2.42492 1.93994,4.36485 4.04153,2.58658 -0.32332,1.2933 -3.87987,3.23322 -4.20319,1.45495 -1.45495,-0.64664 -3.07157,1.77826 -2.42491,3.23323 -2.26326,2.9099 -1.77828,-0.16166 -3.55654,-2.58658 -0.32332,-4.52651 0.64664,-2.42492 -1.61661,-5.65814 -2.1016,-1.77828 -0.16166,-2.58658 2.26326,-0.96996 2.1016,-3.07156 0.48498,-0.96997 -1.61661,-1.77828 z" />
  <path
     style="fill:#d3d3d3"
     id="Alaska"
     d="m 159.07671,447.31325 -0.32332,85.35713 1.6166,0.96996 3.07157,0.16166 1.45494,-1.13162 2.58658,0 0.16167,2.9099 6.95143,6.78977 0.48499,2.58658 3.39488,-1.93994 0.64665,-0.16166 0.32332,-3.07156 1.45494,-1.61661 1.13164,-0.16166 1.93993,-1.45496 3.07156,2.1016 0.64665,2.90991 1.93993,1.13162 1.13163,2.42492 3.87988,1.77827 3.39488,5.98147 2.74823,3.87986 2.26326,2.74825 1.45496,3.7182 5.01149,1.77828 5.17317,2.10159 0.96996,4.36486 0.48498,3.07156 -0.96996,3.39489 -1.77828,2.26325 -1.61661,-0.8083 -1.45495,-3.07157 -2.74824,-1.45494 -1.77827,-1.13164 -0.80831,0.80831 1.45495,2.74825 0.16166,3.7182 -1.13163,0.48498 -1.93993,-1.93993 -2.10159,-1.29329 0.48498,1.61661 1.29328,1.77828 -0.8083,0.8083 c 0,0 -0.8083,-0.32332 -1.29328,-0.96997 -0.485,-0.64664 -2.1016,-3.39488 -2.1016,-3.39488 l -0.96997,-2.26326 c 0,0 -0.32332,1.29329 -0.96997,0.96996 -0.64665,-0.32332 -1.29329,-1.45494 -1.29329,-1.45494 l 1.77827,-1.93994 -1.45495,-1.45495 0,-5.0115 -0.8083,0 -0.8083,3.39488 -1.13164,0.485 -0.96996,-3.71822 -0.64665,-3.71821 -0.80831,-0.48498 0.32333,5.65815 0,1.13162 -1.45496,-1.29328 -3.55654,-5.98147 -2.1016,-0.48498 -0.64664,-3.71821 -1.61661,-2.9099 -1.61662,-1.13164 0,-2.26325 2.1016,-1.29329 -0.48498,-0.32332 -2.58658,0.64664 -3.39489,-2.42491 -2.58658,-2.90991 -4.84983,-2.58658 -4.04154,-2.58658 1.2933,-3.23322 0,-1.61661 -1.77828,1.61661 -2.9099,1.13163 -3.71821,-1.13163 -5.65815,-2.42491 -5.49647,0 -0.64664,0.48498 -6.46645,-3.87988 -2.1016,-0.32332 -2.74824,-5.8198 -3.55655,0.32332 -3.55655,1.45495 0.48499,4.52652 1.13162,-2.9099 0.96998,0.32332 -1.45496,4.36485 3.23322,-2.74824 0.64665,1.61661 -3.87987,4.36485 -1.29329,-0.32332 -0.48498,-1.93994 -1.29329,-0.8083 -1.29329,1.13163 -2.74824,-1.77827 -3.07157,2.1016 -1.77826,2.10159 -3.39489,2.1016 -4.68818,-0.16167 -0.48498,-2.10159 3.7182,-0.64665 0,-1.29328 -2.26326,-0.64666 0.96998,-2.42491 2.26325,-3.87987 0,-1.77827 0.16166,-0.80831 4.36486,-2.26326 0.96996,1.29329 2.74825,0 -1.29329,-2.58657 -3.71822,-0.32333 -5.01149,2.74824 -2.42492,3.39488 -1.77827,2.58659 -1.13163,2.26326 -4.20319,1.45494 -3.07157,2.58658 -0.323321,1.61662 2.263257,0.96997 0.808314,2.10158 -2.74825,3.23323 -6.466439,4.2032 -7.759747,4.20319 -2.101597,1.13162 -5.334818,1.13164 -5.334826,2.26325 1.778275,1.29329 -1.454954,1.45495 -0.484982,1.13163 -2.748238,-0.96997 -3.23322,0.16166 -0.808312,2.26326 -0.969963,0 0.323321,-2.42492 -3.556551,1.2933 -2.909899,0.96996 -3.394886,-1.29329 -2.909901,1.93993 -3.233224,0 -2.101597,1.2933 -1.616612,0.8083 -2.101595,-0.32332 -2.58658,-1.13163 -2.263257,0.64665 -0.969967,0.96996 -1.616613,-1.13162 0,-1.93994 3.071564,-1.29329 6.304787,0.64665 4.364853,-1.61662 2.101596,-2.10159 2.909902,-0.64665 1.778273,-0.80831 2.748241,0.16166 1.616612,1.2933 0.969963,-0.32332 2.263257,-2.74824 3.07157,-0.96998 3.39488,-0.64664 1.293294,-0.32332 0.646642,0.48498 0.808312,0 1.293284,-3.71821 4.041533,-1.45494 1.939936,-3.71821 2.263259,-4.52652 1.616615,-1.45495 0.323321,-2.58658 -1.616615,1.29329 -3.394893,0.64665 -0.646642,-2.42492 -1.293284,-0.32332 -0.969973,0.96996 -0.16166,2.90991 -1.454955,-0.16167 -1.454944,-5.8198 -1.293294,1.29328 -1.131624,-0.48498 -0.32332,-1.93993 -4.041533,0.16166 -2.101596,1.13163 -2.586578,-0.32332 1.454944,-1.45495 0.484981,-2.58658 -0.646641,-1.93994 1.454954,-0.96996 1.293284,-0.16166 -0.646642,-1.77828 0,-4.36485 -0.969963,-0.96997 -0.808312,1.45495 -6.143123,0 -1.454951,-1.29329 -0.646645,-3.87986 -2.101596,-3.55656 0,-0.96996 2.101596,-0.80831 0.161661,-2.1016 1.131628,-1.13162 -0.808305,-0.48498 -1.29329,0.48498 -1.131628,-2.74824 0.969967,-5.01151 4.526514,-3.23321 2.586575,-1.61662 1.939936,-3.7182 2.748249,-1.2933 2.586578,1.13164 0.323321,2.42492 2.424917,-0.32334 3.23322,-2.42491 1.616615,0.64665 0.969962,0.64664 1.616615,0 2.263259,-1.29329 0.808313,-4.36486 c 0,0 0.323321,-2.90989 0.969963,-3.39488 0.646642,-0.48498 0.969963,-0.96996 0.969963,-0.96996 l -1.131623,-1.93994 -2.58658,0.80831 -3.23323,0.8083 -1.939936,-0.48498 -3.556541,-1.77828 -5.011495,-0.16166 -3.556551,-3.7182 0.484981,-3.87987 0.646652,-2.42492 -2.101596,-1.77827 -1.939938,-3.71822 0.484983,-0.8083 6.789771,-0.48498 2.101596,0 0.969963,0.96996 0.646652,0 -0.16166,-1.61661 3.879862,-0.64664 2.586577,0.32332 1.454955,1.13163 -1.454955,2.1016 -0.484981,1.45494 2.748249,1.61662 5.011497,1.77827 1.778276,-0.96996 -2.263257,-4.36485 -0.969974,-3.23323 0.969974,-0.80831 -3.394891,-1.93993 -0.484983,-1.13164 0.484983,-1.6166 -0.808304,-3.87987 -2.909909,-4.68818 -2.424918,-4.20319 2.909909,-1.93994 3.233222,0 1.778276,0.64665 4.203192,-0.16166 3.718205,-3.55654 1.131633,-3.07157 3.718212,-2.42492 1.616604,0.96997 2.748239,-0.64665 3.718209,-2.1016 1.13164,-0.16166 0.96996,0.80832 4.52651,-0.16167 2.74824,-3.07156 1.13163,0 3.55655,2.42491 1.93993,2.1016 -0.48498,1.13163 0.64664,1.13163 1.61662,-1.61661 3.87987,0.32332 0.32332,3.7182 1.93994,1.45496 7.11309,0.64664 6.30479,4.20319 1.45494,-0.96996 5.17317,2.58658 2.10159,-0.64664 1.93994,-0.80832 4.84983,1.93994 4.36486,2.9099 z m -115.102797,28.93736 2.101596,5.33482 -0.161662,0.96997 -2.909902,-0.32333 -1.778273,-4.04153 -1.778273,-1.45494 -2.424919,0 -0.16166,-2.58659 1.778273,-2.42492 1.131629,2.42492 1.45495,1.45495 z m -2.58658,33.46387 3.718209,0.80831 3.718207,0.96996 0.808307,0.96998 -1.616612,3.7182 -3.071564,-0.16166 -3.394885,-3.55654 z m -20.692636,-14.06452 1.13163,2.58657 1.131628,1.61662 -1.131628,0.8083 -2.101597,-3.07156 0,-1.93993 z m -13.7412027,73.07087 3.3948857,-2.26326 3.394885,-0.96997 2.58658,0.32332 0.484983,1.61661 1.939935,0.48499 1.939934,-1.93993 -0.323322,-1.61661 2.748241,-0.64665 2.909902,2.58658 -1.131629,1.77827 -4.364852,1.13163 -2.748242,-0.48498 -3.718207,-1.13163 -4.3648533,1.45495 -1.616612,0.32332 z m 48.9833487,-4.52651 1.616612,1.93993 2.101593,-1.61661 -1.454948,-1.2933 z m 2.909902,3.07155 1.131624,-2.26325 2.101597,0.32332 -0.808303,1.93993 z m 23.602535,-1.93993 1.454954,1.77827 0.969974,-1.13162 -0.808313,-1.93994 z m 8.72971,-12.44791 1.131633,5.8198 2.909899,0.80831 5.011498,-2.90991 4.36485,-2.58658 -1.6166,-2.42491 0.48498,-2.42492 -2.1016,1.29329 -2.909898,-0.80831 1.616608,-1.13162 1.93993,0.8083 3.87987,-1.77828 0.48499,-1.45494 -2.42492,-0.80831 0.8083,-1.93994 -2.74824,1.93994 -4.688172,3.55655 -4.849834,2.9099 z m 42.35524,-19.88433 2.42492,-1.45495 -0.96997,-1.77828 -1.77827,0.96997 z" />
  <path
     style="fill:#d3d3d3"
     id="Florida"
     d="m 756.39728,439.14499 2.26566,7.3186 3.7297,9.74226 5.33479,9.3763 3.71819,6.30476 4.84982,5.49646 4.04151,3.71819 1.6166,2.90989 -1.13162,1.29328 -0.8083,1.29328 2.90988,7.43639 2.90989,2.90988 2.58657,5.3348 3.55653,5.81978 4.52649,8.24468 1.29329,7.59804 0.48498,11.96288 0.64664,1.77826 -0.32332,3.39487 -2.42491,1.29329 0.32332,1.93992 -0.64664,1.93993 0.32332,2.4249 0.48498,1.93993 -2.74822,3.23321 -3.07155,1.45494 -3.87985,0.16166 -1.45495,1.61661 -2.4249,0.96996 -1.29329,-0.48498 -1.13162,-0.96996 -0.32332,-2.90989 -0.80831,-3.39487 -3.39487,-5.17314 -3.55653,-2.26324 -3.87985,-0.32332 -0.8083,1.29328 -3.07155,-4.36483 -0.64664,-3.55653 -2.58657,-4.04151 -1.77826,-1.13163 -1.61661,2.10159 -1.77826,-0.32332 -2.10159,-5.01148 -2.90989,-3.87985 -2.90989,-5.33479 -2.58656,-3.07155 -3.55653,-3.71819 2.10158,-2.42491 3.23321,-5.49646 -0.16166,-1.6166 -4.52649,-0.96996 -1.61661,0.64664 0.32333,0.64664 2.58656,0.96996 -1.45494,4.5265 -0.8083,0.48498 -1.77827,-4.04151 -1.29328,-4.84982 -0.32332,-2.74823 1.45494,-4.68815 0,-9.53797 -3.07155,-3.71819 -1.29328,-3.07155 -5.17314,-1.29328 -1.93992,-0.64664 -1.61661,-2.58657 -3.39487,-1.61661 -1.13162,-3.39487 -2.74823,-0.96996 -2.42491,-3.71819 -4.20317,-1.45494 -2.90989,-1.45495 -2.58656,0 -4.04152,0.80831 -0.16166,1.93992 0.80831,0.96996 -0.48499,1.13163 -3.07154,-0.16166 -3.71819,3.55653 -3.55654,1.93992 -3.87985,0 -3.23321,1.29329 -0.32332,-2.74823 -1.6166,-1.93993 -2.90989,-1.13162 -1.6166,-1.45495 -8.08303,-3.87985 -7.59804,-1.77826 -4.36483,0.64664 -5.98144,0.48498 -5.98144,2.10159 -3.47924,0.61296 -0.23792,-8.04975 -2.58657,-1.93992 -1.77827,-1.77827 0.32332,-3.07156 10.18462,-1.29328 25.5424,-2.90989 6.78975,-0.64664 5.436,0.28027 2.58657,3.87986 1.45494,1.45494 8.09816,0.51522 10.81975,-0.64664 21.51239,-1.29329 5.44572,-0.67437 4.57725,0.0277 0.16166,2.90989 3.824,0.8083 0.32332,-4.80677 -1.6166,-4.52651 0.95484,-0.73272 5.11269,0.45475 z m 12.54541,132.40508 2.42492,-0.64664 1.29328,-0.24249 1.45496,-2.34409 2.34408,-1.61661 1.29329,0.48499 1.69744,0.32332 0.40415,1.05079 -3.4757,1.21246 -4.2032,1.45495 -2.34408,1.21246 z m 13.4987,-5.01149 1.21246,1.0508 2.74824,-2.10159 5.33481,-4.20319 3.7182,-3.87987 2.50575,-6.6281 0.96997,-1.69744 0.16166,-3.39488 -0.72748,0.48498 -0.96996,2.82907 -1.45496,4.60733 -3.23322,5.254 -4.36484,4.20318 -3.39488,1.93993 z" />
  <path
     style="fill:#d3d3d3"
     id="SouthCarolina"
     d="m 762.23097,406.57608 -1.77706,0.9695 -2.58657,-1.29329 -0.64664,-2.10159 -1.29328,-3.55653 -2.26326,-2.1016 -2.58657,-0.64664 -1.6166,-4.84981 -2.74824,-5.98145 -4.20317,-1.93994 -2.1016,-1.93992 -1.29328,-2.58657 -2.10159,-1.93994 -2.26325,-1.29328 -2.26325,-2.90989 -3.07155,-2.26324 -4.52651,-1.77828 -0.48498,-1.45494 -2.4249,-2.90989 -0.48499,-1.45496 -3.39488,-5.17313 -3.39487,0.16166 -4.04152,-2.42492 -1.29328,-1.29328 -0.32332,-1.77827 0.8083,-1.93992 2.26325,-0.96998 -0.32332,-2.10158 6.1431,-2.58657 9.053,-4.5265 7.27473,-0.80831 16.4894,-0.48498 2.26325,1.93993 1.6166,3.23322 4.36485,-0.48498 12.60953,-1.45496 2.90989,0.80831 12.60954,7.59806 10.10808,8.12168 -5.42117,5.45834 -2.58657,6.1431 -0.48498,6.30476 -1.6166,0.8083 -1.13163,2.74823 -2.4249,0.64664 -2.10159,3.55653 -2.74823,2.74823 -2.26324,3.39487 -1.61661,0.8083 -3.55653,3.39487 -2.90989,0.16166 0.96997,3.23321 -5.01148,5.49646 z" />
  <path
     style="fill:#d3d3d3"
     id="Georgia"
     d="m 690.61648,351.61097 -4.84982,0.80831 -8.40636,1.13162 -8.56801,0.88913 0,2.18242 0.16166,2.1016 0.64664,3.39487 3.39488,7.92137 2.42491,9.86131 1.45494,6.14311 1.61661,4.84981 1.45495,6.95141 2.10159,6.30477 2.58657,3.39488 0.48498,3.39487 1.93993,0.8083 0.16166,2.1016 -1.77827,4.84981 -0.48498,3.23322 -0.16166,1.93993 1.61661,4.36484 0.32332,5.3348 -0.80831,2.42491 0.64665,0.80831 1.45495,0.8083 0.64664,3.39487 2.58657,3.87986 1.45494,1.45494 7.92138,0.16166 10.81975,-0.64664 21.51239,-1.29328 5.44572,-0.67437 4.57725,0.0277 0.16166,2.90989 2.58657,0.8083 0.32332,-4.36484 -1.61661,-4.5265 1.13163,-1.6166 5.81978,0.8083 4.97741,0.31778 -0.77542,-6.29879 2.26324,-10.02295 1.45495,-4.20318 -0.48499,-2.58656 3.33441,-6.2443 -0.5103,-1.35168 -1.91341,0.70458 -2.58656,-1.2933 -0.64665,-2.10159 -1.29328,-3.55653 -2.26326,-2.10159 -2.58656,-0.64664 -1.61661,-4.84982 -2.92501,-6.335 -4.20317,-1.93993 -2.1016,-1.93993 -1.29329,-2.58657 -2.10158,-1.93993 -2.26325,-1.29329 -2.26325,-2.90989 -3.07155,-2.26324 -4.52651,-1.77828 -0.48498,-1.45494 -2.42491,-2.90989 -0.48498,-1.45495 -3.39488,-4.90798 -3.39487,0.16167 -4.12991,-3.04364 -1.29328,-1.29328 -0.32332,-1.77827 0.8083,-1.93992 2.35164,-1.23514 -1.13394,-1.22222 0.0779,-0.29088 -5.81979,0.96996 -6.95141,0.8083 z" />
  <path
     style="fill:#d3d3d3"
     id="Alabama"
     d="m 626.59784,460.40902 -1.6156,-15.1965 -2.74824,-18.75264 0.16166,-14.06449 0.8083,-31.03885 -0.16166,-16.65106 0.16509,-6.41906 7.7563,-0.37069 27.80564,-2.58656 8.92254,-0.6622 -0.1478,2.18242 0.16166,2.1016 0.64665,3.39487 3.39488,7.92137 2.4249,9.86131 1.45495,6.14311 1.6166,4.84982 1.45496,6.95141 2.10158,6.30476 2.58657,3.39489 0.48498,3.39486 1.93994,0.80831 0.16166,2.10159 -1.77828,4.84982 -0.48498,3.23322 -0.16166,1.93992 1.61662,4.36485 0.32332,5.33479 -0.80832,2.42492 0.64666,0.8083 1.45494,0.8083 1.03525,2.53527 -6.30477,0 -6.78975,0.64665 -25.5424,2.90988 -10.41156,1.40677 -0.0964,3.7524 1.77827,1.77827 2.58657,1.93992 0.58086,7.93544 -5.54206,2.5729 -2.74822,-0.32332 2.74822,-1.93993 0,-0.96996 -3.07154,-5.98144 -2.26325,-0.64664 -1.45495,4.36483 -1.29328,2.74823 -0.64664,-0.16166 z" />
  <path
     style="fill:#d3d3d3"
     id="NorthCarolina"
     d="m 833.10653,292.11002 1.71,4.6986 3.55653,6.46642 2.4249,2.42491 0.64664,2.26325 -2.4249,0.16166 0.8083,0.64664 -0.32332,4.20317 -2.58657,1.29328 -0.64664,2.10159 -1.29328,2.90989 -3.7182,1.6166 -2.4249,-0.32332 -1.45495,-0.16166 -1.6166,-1.29328 0.32332,1.29328 0,0.96997 1.93993,0 0.8083,1.29328 -1.93993,6.30476 4.20317,0 0.64665,1.6166 2.26324,-2.26324 1.29329,-0.48499 -1.93993,3.55653 -3.07155,4.84982 -1.29328,0 -1.13163,-0.48498 -2.74822,0.64664 -5.17314,2.42491 -6.46642,5.33479 -3.39487,4.68815 -1.93992,6.46642 -0.48498,2.42491 -4.68816,0.48498 -5.45313,1.33666 -9.94641,-8.20253 -12.60954,-7.59805 -2.90989,-0.80831 -12.60953,1.45495 -4.27646,0.75015 -1.6166,-3.23322 -2.97036,-2.1167 -16.48939,0.48498 -7.27474,0.8083 -9.05299,4.52651 -6.14311,2.58656 -1.6166,0.32332 -5.81979,0.96997 -6.95141,0.8083 -6.78975,0.48499 0.50009,-4.05433 1.77827,-1.45494 2.74824,-0.64665 0.64664,-3.7182 4.20318,-2.74822 3.87985,-1.45496 4.20319,-3.55653 4.36483,-2.10159 0.64664,-3.07156 3.87986,-3.87985 0.64664,-0.16166 c 0,0 0,1.13163 0.80831,1.13163 0.8083,0 1.93993,0.32332 1.93993,0.32332 l 2.26325,-3.55654 2.10159,-0.64665 2.26324,0.32333 1.61662,-3.55653 2.90989,-2.58658 0.48498,-2.10159 0,-3.96069 4.5265,0.72748 7.13609,-1.29329 15.81973,-1.93993 17.13604,-2.58657 19.92173,-4.0006 19.73332,-4.16482 11.36444,-2.79643 z m 3.89546,32.98782 2.58658,-2.50575 3.15238,-2.58658 1.53578,-0.64664 0.16166,-2.02076 -0.64664,-6.14312 -1.45495,-2.34408 -0.64665,-1.8591 0.72748,-0.2425 2.74824,5.49648 0.40415,4.44567 -0.16166,3.39489 -3.39488,1.53577 -2.82907,2.42492 -1.13162,1.21246 z" />
  <path
     style="fill:#d3d3d3"
     id="Tennessee"
     d="m 698.05288,314.26734 -51.89309,5.01149 -15.75956,1.77826 -4.6212,0.51271 -3.86835,-0.0277 0,3.87986 -8.40635,0.48498 -6.95141,0.64664 -11.09603,0.0529 -0.26474,5.83543 -2.13817,6.27554 -0.99507,3.01601 -1.34874,4.38106 -0.32332,2.58657 -4.04152,2.26324 1.45494,3.55654 -0.96996,4.36484 -0.96838,0.78965 7.25604,-0.19431 24.08745,-1.93992 5.33485,-0.16167 8.08299,-0.48499 27.80565,-2.58656 10.17075,-0.80831 8.42022,-0.96996 8.40636,-1.13162 4.84982,-0.80831 -0.13058,-4.5094 1.77827,-1.45494 2.74823,-0.64664 0.64665,-3.7182 4.20318,-2.74823 3.87985,-1.45496 4.20318,-3.55653 4.36483,-2.10158 0.87359,-3.52546 4.33376,-3.87985 0.64665,-0.16166 c 0,0 0,1.13162 0.8083,1.13162 0.8083,0 1.93993,0.32332 1.93993,0.32332 l 2.26325,-3.55654 2.10159,-0.64664 2.26324,0.32332 1.61662,-3.55653 2.11556,-2.24616 0.59846,-0.96684 0.17637,-3.93212 -1.48363,-0.28816 -2.42491,1.93994 -7.92138,0.16166 -11.99533,1.90068 z" />
  <path
     style="fill:#d3d3d3"
     id="RhodeIsland"
     d="m 875.07001,173.46167 -0.48295,-4.2044 -0.8083,-4.36484 -1.69743,-5.90061 5.73895,-1.53578 1.6166,1.13162 3.39488,4.36484 2.90887,4.44629 -2.91095,1.5364 -1.29328,-0.16166 -1.13162,1.77827 -2.42491,1.93992 z" />
  <path
     style="fill:#d3d3d3"
     id="Connecticut"
     d="m 874.19331,173.68861 -0.62752,-4.20439 -0.8083,-4.36484 -1.61661,-5.98145 -4.15188,0.90468 -21.82421,4.76898 0.64664,3.31406 1.45495,7.27474 0,8.08303 -1.13163,2.26326 1.8324,2.10912 4.95535,-3.4012 3.55653,-3.23321 1.93992,-2.10159 0.80831,0.64664 2.74822,-1.45494 5.17314,-1.13162 z" />
  <path
     style="fill:#d3d3d3"
     id="Massachusetts"
     d="m 900.97704,167.48944 2.17192,-0.68588 0.45726,-1.71467 1.0288,0.11431 1.0288,2.28624 -1.25742,0.45724 -3.8866,0.11432 z m -9.37354,0.80018 2.28622,-2.62917 1.60037,0 1.82899,1.48605 -2.40054,1.0288 -2.17192,1.0288 z m -34.79913,-21.98819 17.45937,-4.20318 2.26326,-0.64664 2.10158,-3.23321 3.73677,-1.66331 2.88924,4.41284 -2.42491,5.17314 -0.32332,1.45494 1.93993,2.58657 1.13162,-0.8083 1.77827,0 2.26324,2.58656 3.87986,5.98144 3.55653,0.48498 2.26324,-0.96996 1.77827,-1.77827 -0.80831,-2.74822 -2.10158,-1.61661 -1.45495,0.8083 -0.96996,-1.29328 0.48498,-0.48498 2.10159,-0.16166 1.77826,0.8083 1.93993,2.42491 0.96996,2.90989 0.32332,2.4249 -4.20317,1.45495 -3.87985,1.93992 -3.87985,4.5265 -1.93993,1.45494 0,-0.96996 2.42491,-1.45495 0.48498,-1.77826 -0.8083,-3.07155 -2.90989,1.45494 -0.8083,1.45495 0.48498,2.26324 -2.06633,1.00043 -2.7472,-4.52713 -3.39488,-4.36484 -2.0705,-1.81247 -6.53327,1.8762 -5.09233,1.05079 -21.82421,4.76899 -0.40259,-4.94463 0.64664,-10.58877 5.17315,-0.88914 z" />
  <path
     style="fill:#d3d3d3"
     id="Maine"
     d="m 924.21476,70.968946 1.93993,2.101586 2.26325,3.718191 0,1.939926 -2.10159,4.688153 -1.93993,0.646642 -3.39487,3.071549 -4.84981,5.496456 c 0,0 -0.64664,0 -1.29328,0 -0.64664,0 -0.96997,-2.101586 -0.96997,-2.101586 l -1.77826,0.16166 -0.96996,1.454945 -2.42491,1.454944 -0.96996,1.454945 1.6166,1.45494 -0.48498,0.64665 -0.48498,2.74822 -1.93993,-0.16166 0,-1.6166 -0.32332,-1.29329 -1.45494,0.32333 -1.77827,-3.23321 -2.10158,1.29328 1.29328,1.45494 0.32332,1.13163 -0.8083,1.29328 0.32332,3.071553 0.16166,1.6166 -1.6166,2.58657 -2.90989,0.48498 -0.32332,2.90989 -5.3348,3.07155 -1.29328,0.48498 -1.61661,-1.45494 -3.07155,3.55653 0.96997,3.23321 -1.45495,1.29328 -0.16166,4.36483 -1.12328,6.25936 -2.46225,-1.15595 -0.48499,-3.07156 -3.87985,-1.13163 -0.32332,-2.74824 -7.27475,-23.440823 -4.19858,-13.639742 1.42054,-0.118165 1.51379,0.409899 0,-2.586568 0.8083,-5.496456 2.58657,-4.688153 1.45495,-4.041512 -1.93993,-2.424907 0,-5.981437 0.8083,-0.969963 0.80831,-2.748228 -0.16166,-1.454944 -0.16167,-4.849814 1.77827,-4.849814 2.90989,-8.891326 2.10158,-4.203172 1.29329,0 1.29328,0.16166 0,1.131623 1.29329,2.263247 2.74822,0.646642 0.80831,-0.808303 0,-0.969962 4.04151,-2.909889 1.77826,-1.778265 1.45495,0.161661 5.98143,2.424907 1.93993,0.969962 9.05299,29.907187 5.98143,0 0.80831,1.939926 0.16166,4.849814 2.90988,2.263246 0.80831,0 0.16166,-0.484981 -0.48498,-1.131623 z m -20.93175,30.147534 1.53578,-1.535783 1.37412,1.050803 0.56581,2.42492 -1.69744,0.88913 z m 6.70893,-5.900623 1.77827,1.8591 c 0,0 1.29329,0.0808 1.29329,-0.2425 0,-0.32332 0.24249,-2.02076 0.24249,-2.02076 l 0.88914,-0.8083 -0.80831,-1.778277 -2.02076,0.727477 z" />
  <path
     style="fill:#d3d3d3"
     id="NewHampshire"
     d="m 881.79902,136.06299 0.869,-1.0765 1.09022,-3.29102 -2.54308,-0.91347 -0.48499,-3.07156 -3.87985,-1.13162 -0.32332,-2.74824 -7.27475,-23.44082 -4.60142,-14.542991 -0.89708,-0.0051 -0.64664,1.616605 -0.64664,-0.484981 -0.96997,-0.969963 -1.45494,1.939925 -0.0485,5.032054 0.31165,5.667218 1.93992,2.748243 0,4.04152 -3.7182,5.06278 -2.58657,1.13164 0,1.13162 1.13163,1.77827 0,8.56802 -0.80831,9.21467 -0.16166,4.84982 0.96997,1.2933 -0.16166,4.52649 -0.48499,1.77828 1.45495,0.886 16.38992,-4.68972 2.26326,-0.64664 1.53421,-2.55236 z" />
  <path
     style="fill:#d3d3d3"
     id="Vermont"
     d="m 845.34355,147.36466 -0.8083,-5.65813 -2.39071,-9.97167 -0.64664,-0.32332 -2.9099,-1.29329 0.8083,-2.90989 -0.8083,-2.10159 -2.70005,-4.63998 0.96997,-3.87986 -0.80831,-5.17315 -2.42491,-6.46644 -0.80557,-4.92251 26.24748,-6.747443 0.32433,5.81908 1.93993,2.748243 0,4.04152 -3.7182,4.04152 -2.58657,1.13163 0,1.13162 1.13162,1.77827 0,8.56802 -0.8083,9.21467 -0.16166,4.84983 0.96996,1.29329 -0.16166,4.52649 -0.48498,1.77828 0.66062,1.56685 -6.95141,1.37413 z" />
  <path
     style="fill:#d3d3d3"
     id="NewYork"
     d="m 829.61427,183.06061 -1.13163,-0.96996 -2.58658,-0.16166 -2.26324,-1.93992 -1.63061,-6.12913 -3.45846,0.0905 -2.44371,-2.7082 -19.38532,4.38194 -43.00178,8.72969 -7.52965,1.22799 -0.73816,-6.46834 1.4281,-1.12538 1.29328,-1.13162 0.96997,-1.61661 1.77826,-1.13162 1.93993,-1.77827 0.48498,-1.6166 2.10158,-2.74823 1.13163,-0.96996 -0.16166,-0.96997 -1.29329,-3.07154 -1.77826,-0.16166 -1.93993,-6.1431 2.90989,-1.77827 4.36483,-1.45494 4.04152,-1.29329 3.23321,-0.48498 6.30475,-0.16166 1.93993,1.29329 1.6166,0.16166 2.10159,-1.29329 2.58657,-1.13162 5.17313,-0.48498 2.10159,-1.77827 1.77826,-3.23321 1.61661,-1.93992 2.10158,0 1.93993,-1.13163 0.16166,-2.26324 -1.45494,-2.10159 -0.32332,-1.45494 1.13162,-2.10159 0,-1.45494 -1.77827,0 -1.77826,-0.8083 -0.8083,-1.13163 -0.16166,-2.58657 5.81977,-5.49645 0.64664,-0.8083 1.45495,-2.90989 2.90989,-4.5265 2.74823,-3.71819 2.10158,-2.4249 2.4151,-1.82561 3.08136,-1.24594 5.49645,-1.29329 3.23321,0.16166 4.5265,-1.45494 7.56519,-2.07117 0.51979,4.97967 2.42492,6.46644 0.8083,5.17315 -0.96996,3.87986 2.58657,4.5265 0.8083,2.10159 -0.8083,2.9099 2.9099,1.29328 0.64664,0.32332 3.07156,10.99294 -0.53629,5.05967 -0.48498,10.83127 0.8083,5.49647 0.8083,3.55654 1.45495,7.27474 0,8.08304 -1.13163,2.26325 1.83933,1.99279 0.79655,1.67842 -1.93992,1.77827 0.32332,1.29328 1.29328,-0.32332 1.45495,-1.29328 2.26324,-2.58657 1.13163,-0.64664 1.6166,0.64664 2.26325,0.16166 7.92136,-3.87985 2.90989,-2.74823 1.29328,-1.45494 4.20317,1.6166 -3.39487,3.55653 -3.87985,2.90989 -7.11306,5.33479 -2.58656,0.96997 -5.81978,1.93992 -4.04151,1.13163 -1.17474,-0.53293 -0.24402,-3.68853 0.48498,-2.74824 -0.16166,-2.10158 -2.81351,-1.699 -4.5265,-0.96997 -3.87986,-1.13162 z" />
  <path
     style="fill:#d3d3d3"
     id="NewJersey"
     d="m 829.16036,183.96841 -2.10158,2.42491 0,3.07156 -1.93994,3.07155 -0.16166,1.61662 1.2933,1.29328 -0.16166,2.42492 -2.26326,1.13162 0.8083,2.74823 0.16166,1.13163 2.74824,0.32332 0.96996,2.58657 3.55654,2.42492 2.42491,1.6166 0,0.80831 -3.23321,3.07156 -1.61661,2.26324 -1.45495,2.74824 -2.26325,1.29328 -1.21245,0.72748 -0.2425,1.21246 -0.60923,2.60674 1.09227,2.24419 3.23321,2.90989 4.84981,2.26325 4.04151,0.64664 0.16166,1.45494 -0.8083,0.96996 0.32332,2.74823 0.8083,0 2.10159,-2.4249 0.8083,-4.84982 2.74823,-4.04151 3.07155,-6.46642 1.13162,-5.49645 -0.64664,-1.13163 -0.16166,-9.37631 -1.61661,-3.39486 -1.13162,0.8083 -2.74823,0.32332 -0.48498,-0.48498 1.13163,-0.96997 2.10158,-1.93992 0.0631,-1.09383 -0.38439,-3.43384 0.48498,-2.74824 -0.16166,-2.10159 -2.58657,-1.13163 -4.5265,-0.96996 -3.87986,-1.13163 z" />
  <path
     style="fill:#d3d3d3"
     id="Pennsylvania"
     d="m 823.20688,220.09805 1.13164,-0.64665 2.26324,-0.61243 1.45495,-2.74824 1.61661,-2.26325 3.23321,-3.07156 0,-0.8083 -2.42491,-1.6166 -3.55654,-2.42492 -0.96996,-2.58657 -2.74824,-0.32332 -0.16166,-1.13163 -0.8083,-2.74823 2.26326,-1.13162 0.16166,-2.42492 -1.2933,-1.29329 0.16166,-1.61661 1.93994,-3.07155 0,-3.07156 2.34408,-2.42491 0.21452,-1.08345 -2.58658,-0.16166 -2.26324,-1.93992 -2.42492,-5.33481 -3.00458,-0.93073 -2.33023,-2.14083 -18.59099,4.04152 -43.00178,8.72969 -8.89135,1.45494 -0.49567,-7.08389 -5.48753,5.63015 -1.29329,0.48498 -4.20229,3.00889 2.91076,19.13745 2.48166,9.72936 3.5718,19.26149 3.26931,-0.63768 11.94358,-1.50247 37.92663,-7.6652 14.87621,-2.82332 8.30035,-1.62236 0.26711,-0.23853 2.1016,-1.61662 z" />
  <path
     style="fill:#d3d3d3"
     id="Delaware"
     d="m 823.35259,224.06141 0.58928,-2.1027 0.0215,-1.20491 -1.26945,-0.0884 -2.1016,1.61661 -1.45495,1.45494 1.45495,4.20319 2.26326,5.65812 2.10158,9.69965 1.61662,6.30478 5.01148,-0.16166 6.14212,-1.21193 -2.26423,-7.35502 -0.96997,0.48498 -3.55653,-2.4249 -1.77826,-4.68816 -1.93993,-3.55653 -2.26324,-0.96996 -2.10159,-3.55653 z" />
  <path
     style="fill:#d3d3d3"
     id="Maryland"
     d="m 837.95336,248.94315 -6.14113,1.29223 -5.80581,0.16166 -1.84356,-7.09911 -2.10159,-9.69965 -2.26326,-5.65812 -1.28838,-4.39833 -7.50602,1.62236 -14.87621,2.82332 -37.45143,7.5509 1.1313,5.01166 0.96996,5.65811 0.32332,-0.32332 2.1016,-2.4249 2.26324,-2.61766 2.42491,-0.61556 1.45496,-1.45495 1.77826,-2.58657 1.29328,0.64665 2.90989,-0.32333 2.58658,-2.10158 2.00689,-1.45327 1.84523,-0.48498 1.64435,1.12995 2.90989,1.45494 1.93992,1.77827 1.21246,1.53578 4.12235,1.69743 0,2.90989 5.49646,1.29329 1.14444,0.54198 1.4119,-2.02832 2.88197,1.97016 -1.27817,2.48193 -0.76527,3.98566 -1.77826,2.58657 0,2.10159 0.64664,1.77827 5.06395,1.35569 4.3111,-0.0617 3.07154,0.96997 2.10159,0.32332 0.96996,-2.10159 -1.45494,-2.10158 0,-1.77827 -2.42491,-2.10159 -2.10158,-5.49645 1.29328,-5.3348 -0.16166,-2.10158 -1.29328,-1.29329 c 0,0 1.45494,-1.6166 1.45494,-2.26324 0,-0.64665 0.48498,-2.10159 0.48498,-2.10159 l 1.93993,-1.29328 1.93992,-1.61661 0.48498,0.96997 -1.45494,1.6166 -1.29328,3.71819 0.32332,1.13162 1.77826,0.32332 0.48498,5.49646 -2.10158,0.96996 0.32332,3.55653 0.48498,-0.16166 1.13162,-1.93992 1.61661,1.77826 -1.61661,1.29329 -0.32332,3.39487 2.58657,3.39487 3.87985,0.48498 1.61661,-0.8083 3.23655,4.18293 1.35835,0.5363 6.65367,-2.79695 2.00758,-4.02387 z m -16.63249,8.98453 1.13162,2.50575 0.16166,1.77827 1.13163,1.8591 c 0,0 0.88914,-0.88914 0.88914,-1.21246 0,-0.32332 -0.72747,-3.07156 -0.72747,-3.07156 l -0.72748,-2.34409 z" />
  <path
     style="fill:#d3d3d3"
     id="WestVirginia"
     d="m 757.56051,235.60554 1.11201,4.94453 1.08344,6.90633 3.55967,-2.74823 2.26324,-3.07156 2.53838,-0.61555 1.45495,-1.45494 1.77827,-2.58657 1.17981,0.64664 2.90989,-0.32332 2.58658,-2.10159 2.00689,-1.45326 1.84523,-0.48499 1.30392,1.01647 2.22904,1.11452 1.93993,1.77827 1.37412,1.29328 -0.143,4.67106 -5.65813,-3.07155 -4.5265,-1.77827 -0.16166,5.33481 -0.48498,2.10158 -1.6166,2.74824 -0.64666,1.61661 -3.07155,2.4249 -0.48498,2.26326 -3.39488,0.32332 -0.32332,3.07155 -1.13162,5.49647 -2.58657,0 -1.29328,-0.80831 -1.61662,-2.74824 -1.77826,0.16166 -0.32332,4.36485 -2.10159,6.62809 -5.01148,10.83127 0.8083,1.29328 -0.16166,2.74823 -2.10159,1.93993 -1.45494,-0.32332 -3.23322,2.42491 -2.58657,-0.96996 -1.77826,4.68815 c 0,0 -3.71821,0.80831 -4.36485,0.96997 -0.64664,0.16166 -2.42491,-1.29329 -2.42491,-1.29329 l -2.42491,2.26325 -2.58657,0.64665 -2.9099,-0.80831 -1.29328,-1.29328 -2.19222,-3.02336 -3.14259,-1.98812 -2.58657,-2.74824 -2.90988,-3.71819 -0.64665,-2.26325 -2.58657,-1.45495 -0.80831,-1.6166 -0.24249,-5.25398 2.18242,-0.0808 1.93994,-0.8083 0.16166,-2.74823 1.6166,-1.45495 0.16166,-5.01148 0.96996,-3.87986 1.29329,-0.64664 1.29328,1.13162 0.48499,1.77827 1.77827,-0.96997 0.48498,-1.6166 -1.13162,-1.77827 0,-2.42491 0.96996,-1.29329 2.26325,-3.39487 1.29328,-1.45494 2.1016,0.48498 2.26324,-1.61662 3.07155,-3.39487 2.26326,-3.87986 0.32332,-5.65811 0.48498,-5.01149 0,-4.68816 -1.13162,-3.07155 0.96996,-1.45496 1.28348,-1.29328 3.49125,19.82712 4.63101,-0.75115 z" />
  <path
     style="fill:#d3d3d3"
     id="Kentucky"
     d="m 722.78301,291.4561 -2.32457,2.68293 -4.20319,3.55654 -4.29955,5.90217 -1.77827,1.77827 0,2.10158 -3.87986,2.10159 -5.65812,3.39488 -3.51956,0.38464 -51.86789,4.89886 -15.75956,1.77826 -4.6212,0.51271 -3.86835,-0.0277 -0.22695,4.22028 -8.17941,0.14456 -6.95141,0.64664 -10.43059,0.2056 1.91278,-0.22163 2.18005,-1.76202 2.0576,-1.1431 0.22863,-3.20073 0.91449,-1.82898 -1.60682,-2.5389 0.80183,-1.90681 2.26326,-1.77826 2.10158,-0.64665 2.74823,1.29329 3.55654,1.29328 1.13163,-0.32332 0.16166,-2.26325 -1.29329,-2.42491 0.32332,-2.26325 1.93993,-1.45494 2.58658,-0.64665 1.6166,-0.64664 -0.8083,-1.77827 -0.64664,-1.93993 1.13162,-0.8083 1.05079,-3.31406 2.99072,-1.69743 5.81979,-0.96996 3.55654,-0.48498 1.45494,1.93993 1.77827,0.8083 1.77827,-3.23321 2.90989,-1.45495 1.93993,1.61661 0.8083,1.13162 2.1016,-0.48498 -0.16167,-3.39487 2.9099,-1.61661 1.13162,-0.80831 1.13162,1.61661 4.68817,0 0.8083,-2.10159 -0.32332,-2.26324 2.90989,-3.55655 4.68816,-3.87985 0.48498,-4.5265 2.74824,-0.32332 3.87985,-1.77827 2.74824,-1.93993 -0.32333,-1.93993 -1.45495,-1.45494 0.56582,-2.18241 4.12235,-0.2425 2.42491,-0.8083 2.90989,1.6166 1.61661,4.36484 5.81979,0.32332 1.77826,1.77827 2.10159,0.16166 2.42491,-1.45494 3.07155,0.48498 1.29329,1.45494 2.74824,-2.58657 1.77826,-1.29329 1.61661,0 0.64664,2.74824 1.77827,0.96996 2.42179,2.21507 0.16166,5.49646 0.8083,1.61661 2.58658,1.45494 0.64664,2.26326 2.90989,3.71819 2.58656,2.74824 z" />
  <path
     style="fill:#d3d3d3"
     id="Ohio"
     d="m 732.43589,188.64593 -6.09354,4.05335 -3.87985,2.26325 -3.39487,3.71819 -4.04151,3.87985 -3.23321,0.8083 -2.90989,0.48498 -5.49646,2.58657 -2.10158,0.16166 -3.39487,-3.07155 -5.17314,0.64665 -2.58656,-1.45495 -2.38107,-1.35083 -4.89257,0.70341 -10.18462,1.61661 -7.75972,1.21246 1.29329,14.63028 1.77827,13.74117 2.58656,23.4408 0.56582,4.83117 4.12235,-0.12902 2.42491,-0.80831 3.3638,1.50314 2.07049,4.36483 5.13894,-0.0171 1.89174,2.1187 1.76117,-0.0653 2.53839,-1.34146 2.50417,0.3715 1.97413,1.45495 1.72697,-2.13268 2.34565,-1.29328 2.07049,-0.68085 0.64664,2.74824 1.77828,0.96996 3.47569,2.34407 2.18242,-0.0808 1.14562,-1.14873 -0.0653,-1.38653 1.61661,-1.45496 0.16166,-5.01147 c 0,0 0.96996,-3.87986 0.96996,-3.87986 l 1.52024,-1.44097 1.52023,0.90468 0.82541,1.21088 1.2109,-0.17563 -0.42281,-2.41093 -0.56426,-0.64352 0,-2.42492 0.96997,-1.29328 2.26324,-3.39487 1.29329,-1.45495 2.10159,0.48498 2.26325,-1.61661 3.07155,-3.39487 2.26326,-3.87986 0.20984,-5.43116 0.48498,-5.01149 0,-4.68816 -1.13162,-3.07155 0.96996,-1.45495 0.92051,-0.95461 -1.40491,-9.84283 z" />
  <path
     style="fill:#d3d3d3"
     id="Michigan"
     d="m 582.61931,75.697233 1.82899,-2.057604 2.17192,-0.800181 5.37264,-3.886597 2.28622,-0.571559 0.45726,0.457254 -5.14402,5.14402 -3.31504,1.943289 -2.05761,0.914496 z m 86.17438,32.128187 0.64664,2.50574 3.23322,0.16166 1.29329,-1.21246 c 0,0 -0.0808,-1.45494 -0.40415,-1.61661 -0.32333,-0.16166 -1.61661,-1.8591 -1.61661,-1.8591 l -2.18242,0.24249 -1.61662,0.16166 -0.32332,1.13163 z m 30.06638,63.0497 -3.23321,-8.24469 -2.26325,-9.05298 -2.4249,-3.23321 -2.58657,-1.77827 -1.6166,1.13163 -3.87986,1.77826 -1.93992,5.01148 -2.74823,3.71819 -1.13162,0.64664 -1.45495,-0.64664 c 0,0 -2.58656,-1.45495 -2.4249,-2.10159 0.16166,-0.64664 0.48498,-5.01147 0.48498,-5.01147 l 3.39487,-1.29329 0.8083,-3.39487 0.64664,-2.58656 2.42491,-1.61661 -0.32332,-10.02295 -1.61661,-2.26324 -1.29328,-0.80831 -0.8083,-2.10158 0.8083,-0.8083 1.6166,0.32332 0.16166,-1.61661 -2.4249,-2.26325 -1.29329,-2.58656 -2.58656,0 -4.5265,-1.45495 -5.49645,-3.39487 -2.74823,0 -0.64664,0.64665 -0.96997,-0.48499 -3.07154,-2.26324 -2.90989,1.77826 -2.90989,2.26325 0.32332,3.55653 0.96996,0.32332 2.10159,0.48498 0.48498,0.8083 -2.58657,0.80831 -2.58656,0.32332 -1.45495,1.77826 -0.32332,2.10159 0.32332,1.6166 0.32332,5.49646 -3.55653,2.10159 -0.64664,-0.16167 0,-4.20317 1.29328,-2.4249 0.64665,-2.42491 -0.80831,-0.8083 -1.93992,0.8083 -0.96997,4.20317 -2.74822,1.13162 -1.77827,1.93993 -0.16166,0.96996 0.64664,0.8083 -0.64664,2.58657 -2.26325,0.48498 0,1.13163 0.80831,2.4249 -1.13163,6.1431 -1.6166,4.04151 0.64664,4.68816 0.48498,1.13162 -0.8083,2.42491 -0.32332,0.8083 -0.32332,2.74823 3.55653,5.98143 2.90989,6.46642 1.45494,4.84982 -0.8083,4.68815 -0.96996,5.98144 -2.42491,5.17313 -0.32332,2.74823 -3.25887,3.08515 4.40861,-0.16205 21.41849,-2.26325 7.27784,-0.98706 0.0964,1.66635 6.85194,-1.21246 10.29808,-1.50313 3.8542,-0.46091 0.13805,-0.58755 0.16166,-1.45494 2.10158,-3.71819 2.00056,-1.73785 -0.22229,-5.05189 1.59699,-1.59699 1.09062,-0.34294 0.22228,-3.55653 1.53577,-3.03112 1.05079,0.60622 0.16166,0.64664 0.80831,0.16166 1.93992,-0.96996 z m -130.36798,-66.02371 0.71628,-0.5804 2.74823,-0.80831 3.55653,-2.26324 0,-0.96997 0.64665,-0.646643 5.98143,-0.96996 2.42491,-1.93993 4.36483,-2.10158 0.16166,-1.293286 1.93993,-2.909889 1.77826,-0.808302 1.29329,-1.778265 2.26324,-2.263247 4.36484,-2.424907 4.68815,-0.484981 1.13162,1.131623 -0.32332,0.969963 -3.71819,0.969963 -1.45494,3.071549 -2.26325,0.808302 -0.48498,2.424907 -2.42491,3.23321 -0.32332,2.58657 0.8083,0.48498 0.96997,-1.13162 3.55653,-2.90989 1.29328,1.29328 2.26325,0 3.23321,0.96996 1.45494,1.13163 1.45494,3.071553 2.74823,2.74822 3.87985,-0.16166 1.45495,-0.96996 1.6166,1.29328 1.61661,0.48499 1.29328,-0.80831 1.13162,0 1.61661,-0.96996 4.04151,-3.556533 3.39487,-1.13162 6.62808,-0.32332 4.52649,-1.93993 2.58657,-1.29328 1.45495,0.16166 0,5.65811 0.48498,0.323323 2.90988,0.80831 1.93993,-0.48499 6.1431,-1.616603 1.13162,-1.13162 1.45495,0.48498 0,6.951403 3.23321,3.07155 1.29328,0.64664 1.29328,0.96996 -1.29328,0.32332 -0.8083,-0.32332 -3.71819,-0.48498 -2.10159,0.64664 -2.26325,-0.16166 -3.23321,1.45495 -1.77826,0 -5.81978,-1.29329 -5.17313,0.16166 -1.93993,2.58657 -6.9514,0.64664 -2.42491,0.8083 -1.13162,3.07155 -1.29328,1.13163 -0.48498,-0.16166 -1.45495,-1.61661 -4.52649,2.42491 -0.64664,0 -1.13163,-1.61661 -0.8083,0.16166 -1.93992,4.36484 -0.96997,4.04151 -3.18112,7.0008 -1.17676,-1.03427 -1.37174,-1.03132 -1.94078,-10.28802 -3.54448,-1.37005 -2.05258,-2.28623 -12.12036,-2.74348 -2.85527,-1.02964 -8.23042,-2.17274 -7.88999,-1.14312 z" />
  <path
     style="fill:#d3d3d3"
     id="Wyoming"
     d="m 355.25168,137.4141 -10.54915,-0.80703 -32.08799,-3.29542 -16.23221,-2.0576 -28.34921,-4.11521 -19.89016,-2.97209 -1.41909,11.17596 -3.83923,24.26054 -5.25833,30.40681 -1.531,10.51618 -1.66971,11.88883 6.52387,0.92837 25.87936,2.49992 20.56912,2.307 36.78372,4.11518 23.82104,2.86002 4.50431,-44.19233 1.43987,-25.37711 z" />
  <path
     style="fill:#d3d3d3"
     id="Montana"
     d="m 357.67064,115.91208 0.64782,-11.15059 2.25849,-24.787119 c 0.45725,-5.029705 1.08371,-8.472106 1.37174,-15.410066 l 0.93976,-14.551615 -30.67432,-2.807833 -29.26055,-3.55653 -29.26054,-4.041512 -32.3321,-5.334795 -18.42929,-3.39487 -32.72365,-6.932736 -4.47902,21.347532 3.42934,7.544541 -1.37174,4.572452 1.82898,4.572451 3.20073,1.371739 4.62082,10.769453 2.6951,3.176523 0.45724,1.143118 3.42934,1.143118 0.45725,2.057593 -7.0873,17.603953 0,2.514853 2.51485,3.20071 0.91448,0 4.80107,-2.97209 0.68588,-1.14312 1.60036,0.68587 -0.22863,5.25832 2.74348,12.57425 2.97209,2.51484 0.91448,0.68587 1.82899,2.28622 -0.45725,3.42935 0.68587,3.42933 1.14312,0.9145 2.28622,-2.28623 2.74347,0 3.20072,1.60036 2.51485,-0.91449 4.11521,0 3.65795,1.60036 2.74348,-0.45725 0.45724,-2.9721 2.97209,-0.68586 1.37174,1.37174 0.45725,3.20071 1.77942,1.36497 1.5334,-11.56507 20.69255,2.97209 28.18872,3.95474 16.55318,1.89712 31.44608,3.4559 10.99014,1.52407 1.05197,-15.42726 z" />
  <path
     style="fill:#d3d3d3"
     id="Idaho"
     d="m 163.11948,174.59792 c -22.61088,-4.34328 -14.14727,-2.847 -21.14067,-4.35074 l 4.42704,-17.50247 4.34383,-17.71825 1.37174,-4.22952 2.51484,-5.94418 -1.25742,-2.28623 -2.51486,0.11431 -0.80017,-1.0288 0.45725,-1.14311 0.34292,-3.08641 4.45815,-5.48695 1.82898,-0.45724 1.14311,-1.14311 0.57156,-3.20072 0.91448,-0.68586 3.88659,-5.82988 3.88659,-4.343833 0.22862,-3.772268 -3.42934,-2.629163 -1.31458,-4.400983 0.40009,-9.659298 3.65796,-16.460833 4.45814,-20.804652 3.77227,-13.488722 0.76193,-3.803186 12.99614,2.528111 -4.15808,21.508013 2.94791,7.705022 -1.05078,4.572452 1.98946,4.572451 3.20072,1.692691 4.46034,9.806588 2.6951,3.818436 0.61773,1.143118 3.42934,1.143118 0.45724,2.539016 -6.92682,16.801569 0.32096,3.317233 2.67531,2.87976 1.87736,0.48143 4.80107,-3.61399 0.36492,-0.50122 0.15606,0.84636 0.25281,4.13497 2.583,12.89521 3.45352,2.67531 0.43306,0.84635 2.14993,2.4467 -0.77819,2.78744 0.68586,3.75028 1.94551,0.9145 2.12574,-1.64431 2.58299,-0.48144 3.3612,1.60036 2.51485,-0.59354 3.79426,-0.16048 3.9789,1.60036 2.74348,-0.29676 0.93868,-2.3302 2.49065,-1.64872 0.72984,1.69269 0.61771,2.23785 2.30822,2.53904 -3.77227,23.98118 -5.14406,29.00876 -4.1592,-0.3187 -8.18424,-1.53221 -9.80658,-1.82898 -12.16316,-2.37856 -12.52808,-2.50386 -8.48322,-1.83997 -9.25921,-1.6685 z" />
  <path
     style="fill:#d3d3d3"
     id="Washington1"
     d="m 146.76396,80.381289 c -8.37536,-2.264829 -13.49761,-3.026892 -19.23611,-2.861854 -4.30166,0.123728 -8.13462,-0.08854 -8.51776,-0.471677 -0.38314,-0.38313 -2.13131,-0.196479 -3.88481,0.414787 -1.78156,0.621051 -4.49875,0.73681 -6.15864,0.262349 -1.63375,-0.46697 -3.97844,-0.970632 -5.21045,-1.119211 -1.23202,-0.14859 -5.145693,-1.223903 -8.69712,-2.3896 -3.902802,-1.281043 -8.072964,-1.910736 -10.541795,-1.591824 -5.828181,0.752856 -9.311281,-1.724802 -8.66028,-6.160401 0.609147,-4.150213 -1.617828,-9.858787 -3.845988,-9.858787 -0.907881,0 -2.220832,-0.779632 -2.917602,-1.732521 -0.69677,-0.952879 -2.707556,-1.802936 -4.468408,-1.888983 -1.760874,-0.08607 -3.560983,-0.651763 -4.000275,-1.257115 -1.304046,-1.79701 -0.942779,-3.818505 0.682398,-3.818505 2.085157,0 3.138944,-3.214967 1.644159,-5.016077 -1.594237,-1.920966 -0.478853,-4.768187 1.867946,-4.768187 1.64554,0 1.621612,-0.233952 -0.233626,-2.283951 C 62.909174,33.987299 62.5623,32.112253 62.74968,25.91539 62.876755,21.7132 62.489723,17.357583 61.88961,16.236263 60.721271,14.053198 62.39712,5.5094696 63.993684,5.5094696 c 0.470655,0 2.041736,1.269519 3.491308,2.82114 3.11108,3.3301404 6.067298,4.9621014 14.096156,7.7817194 6.319798,2.219397 8.651507,2.12087 8.651507,-0.365616 0,-0.847057 0.856124,-1.501493 1.902496,-1.45429 1.13654,0.05127 1.355382,0.306585 0.54357,0.634162 -0.747409,0.301573 -1.358925,1.258604 -1.358925,2.126707 0,1.766669 3.131714,6.9375 4.201809,6.937674 1.247004,2.18e-4 0.545864,-16.7929714 -0.806583,-19.3193234 -2.114879,-3.9505159 -0.611136,-4.4840301 6.648798,-2.3590619 12.30039,3.6003049 47.87234,12.8877133 60.62011,15.8271673 6.87616,1.585551 12.63343,2.988951 12.79391,3.118658 0.16047,0.129696 -0.6942,3.365939 -1.89932,7.19163 -3.02537,9.604223 -10.89459,46.796548 -10.89459,51.491374 0,4.628457 0.24328,4.621413 -15.21997,0.43989 l 0,-1.1e-5 z" />
  <path
     style="fill:#d3d3d3"
     id="Washington2"
     d="m 94.573239,0 4.364832,1.4549443 9.699629,2.7482283 8.568,1.939925 20.0459,5.6581174 22.95579,5.658116 15.16062,3.394673 -1.00428,3.884052 -4.09322,13.809674 -4.45813,20.804652 -3.17654,16.139881 -0.35155,9.37877 -13.18114,-3.894036 -15.57051,-3.383179 -13.66679,0.595738 -1.58057,-1.532199 -5.32647,1.897123 -3.97671,-0.250608 -2.7215,-1.760831 -1.57837,0.525394 -4.20533,-0.228632 -1.875145,-1.37173 -4.776893,-1.736652 -1.442084,-0.206636 -4.985743,-1.325574 -1.782813,1.50802 -5.691381,-0.342927 -4.820844,-3.794246 0.204433,-0.80018 0.06814,-7.933655 -2.125749,-3.886576 -4.115208,-0.73204 -0.36491,-2.354366 -2.514408,-0.627046 -2.881537,-0.534882 -1.778265,0.969963 -2.263247,-2.909888 0.323321,-2.909889 2.748228,-0.323321 1.616605,-4.041511 -2.586568,-1.131624 0.161661,-3.718191 4.364833,-0.646641 -2.748228,-2.748228 -1.454945,-7.113061 0.646642,-2.909888 0,-7.921363 -1.778265,-3.23321 2.263247,-9.3763074 2.101586,0.484981 2.424907,2.909889 2.748228,2.5865674 3.233209,1.939926 4.526493,2.101586 3.071551,0.646642 2.909889,1.454944 3.394873,0.969963 2.263246,-0.16166 0,-2.424908 1.293284,-1.131623 2.101586,-1.293284 0.323321,1.131624 0.323321,1.778265 -2.263247,0.484981 -0.323321,2.101586 1.778266,1.454945 1.131623,2.424907 0.646642,1.939925 1.454944,-0.16166 0.16166,-1.293284 -0.969962,-1.293284 -0.484982,-3.233209 0.808302,-1.778265 -0.646641,-1.454944 0,-2.263247 L 96.67482,9.0529866 95.543196,6.4664186 93.118289,1.6166047 93.44161,0.8083024 z m -9.456691,5.9789646 2.020764,-0.16166 0.484982,1.374119 1.535779,-1.616615 2.344082,0 0.808303,1.535779 -1.53578,1.69744 0.646652,0.808313 -0.727477,2.0207614 -1.374119,0.404146 c 0,0 -0.889138,0.08084 -0.889138,-0.242485 0,-0.323321 1.454955,-2.5865784 1.454955,-2.5865784 L 88.188111,8.6463676 87.86479,10.101322 87.137312,10.747964 85.60153,8.4847066 z" />
  <path
     style="fill:#d3d3d3"
     id="Texas"
     d="m 358.05332,327.01213 22.69079,1.08594 31.09269,1.14312 -2.33461,23.4558 -0.29676,18.15352 0.0681,2.08179 4.34383,3.81843 1.73665,0.82216 1.80921,0.25281 0.68587,-1.25522 0.89032,0.86612 1.73664,0.48143 1.60477,-0.72982 1.1387,0.40887 -0.29677,3.40515 4.27569,1.03101 2.67532,0.82217 3.95474,0.52538 2.19388,1.82898 3.2491,-1.57617 2.78744,0.36491 2.03341,2.78744 1.07496,0.32096 -0.16047,1.96527 3.08861,1.16729 2.76765,-1.8048 1.50802,0.36492 2.35438,0.16048 0.43307,1.87294 4.64059,1.98945 2.65555,-0.20443 1.98947,-4.11521 0.34072,0 1.14312,1.89713 4.43616,1.00681 3.337,1.21127 3.29305,0.75402 2.14994,-0.75402 0.84634,-2.51484 3.70192,0 1.89713,0.754 3.06442,-1.57617 0.66169,0 0.36491,1.11893 4.27569,0 2.40275,-1.25522 1.6685,0.29676 1.4157,1.87295 2.87975,1.6685 3.52168,1.07497 2.74347,1.41791 2.4467,1.62232 3.29304,-0.89029 1.94109,0.98263 0.51111,10.13963 0.33524,9.70217 0.68586,9.53401 0.5254,4.04705 2.67533,4.59664 1.07496,4.06684 3.8624,6.28933 0.54957,2.87977 0.5254,1.00681 -0.68588,7.49619 -2.65113,4.38778 0.95845,2.85998 -0.36492,2.51485 -0.84634,7.31593 -1.37174,2.71929 0.60424,4.38623 -5.66488,1.58518 -9.86129,4.5265 -0.96996,1.93992 -2.58657,1.93993 -2.10158,1.45494 -1.29329,0.8083 -5.65811,5.3348 -2.74823,2.10159 -5.3348,3.2332 -5.65811,2.42491 -6.30476,3.39487 -1.77826,1.45495 -5.81978,3.55653 -3.39487,0.64664 -3.87985,5.49645 -4.04151,0.32333 -0.96997,1.93992 2.26325,1.93993 -1.45495,5.49645 -1.29328,4.5265 -1.13162,3.87985 -0.8083,4.52649 0.8083,2.42491 1.77826,6.9514 0.96997,6.14309 1.77826,2.74823 -0.96996,1.45495 -3.07155,1.93992 -5.65812,-3.87985 -5.49645,-1.13162 -1.29329,0.48498 -3.23321,-0.64664 -4.20317,-3.07155 -5.17313,-1.13162 -7.59805,-3.39487 -2.10158,-3.87986 -1.29329,-6.46641 -3.2332,-1.93993 -0.64665,-2.26325 0.64665,-0.64664 0.32332,-3.39487 -1.29329,-0.64664 -0.64664,-0.96996 1.29328,-4.36484 -1.6166,-2.26324 -3.23321,-1.29329 -3.39487,-4.36483 -3.55653,-6.62808 -4.20317,-2.58657 0.16166,-1.93992 -5.3348,-12.2862 -0.8083,-4.20317 -1.77826,-1.93992 -0.16166,-1.45495 -5.98144,-5.33479 -2.58657,-3.07155 0,-1.13163 -2.58657,-2.10158 -6.78974,-1.13163 -7.43638,-0.64664 -3.07155,-2.26324 -4.52649,1.77826 -3.55653,1.45495 -2.26325,3.2332 -0.96996,3.7182 -4.36483,6.14309 -2.42491,2.42491 -2.58657,-0.96996 -1.77826,-1.13163 -1.93993,-0.64664 -3.87985,-2.26324 0,-0.64665 -1.77826,-1.93992 -5.17314,-2.10159 -7.43638,-7.7597 -2.26325,-4.68815 0,-8.08303 -3.23321,-6.46642 -0.48498,-2.74822 -1.6166,-0.96997 -1.13163,-2.10158 -5.01147,-2.10159 -1.29328,-1.6166 -7.11307,-7.92137 -1.29328,-3.23321 -4.68816,-2.26325 -1.45495,-4.36487 -2.58659,-2.90987 -1.93991,-0.48496 -0.64923,-4.67764 8.00187,0.68589 29.03499,2.74345 29.03508,1.60036 2.28623,-23.77676 3.88655,-55.55502 1.60039,-18.74732 1.37174,0.0286 m 98.97665,233.97768 -0.56581,-7.11308 -2.74824,-7.19392 -0.56582,-7.03225 1.53578,-8.24471 3.31406,-6.87059 3.4757,-5.41565 3.1524,-3.55655 0.64664,0.2425 -4.769,6.6281 -4.36484,6.54728 -2.02077,6.62809 -0.32332,5.17316 0.88913,6.14312 2.58658,7.19392 0.48498,5.17314 0.16166,1.45496 -0.88913,0.24248 z" />
  <path
     style="fill:#d3d3d3"
     id="California"
     d="m 137.74132,380.39182 3.81508,-0.48862 1.48604,-2.01144 0.73204,-1.94109 -3.17652,-0.0901 -1.09917,-1.76303 0.77822,-1.71467 -0.0462,-6.15084 2.21809,-1.32778 2.6973,-2.58298 0.41108,-4.91539 1.64652,-3.49749 1.94329,-2.10376 3.26887,-1.71467 1.27939,-0.72983 0.75623,-1.48384 -0.86833,-0.89251 -0.96065,-1.51023 -0.93647,-5.34845 -2.90395,-5.23634 0.0971,-2.78625 -2.20083,-3.24806 -14.99896,-23.22938 -19.43292,-28.7141 -22.426988,-33.03376 -12.702455,-19.54491 1.796711,-7.20834 6.812519,-25.94866 8.116103,-31.43561 -12.365399,-3.33702 -13.488735,-3.42934 -12.574239,-4.11521 -7.544545,-2.0576 -11.431128,-2.97209 -7.050815,-2.4117 -1.580119,4.72436 -0.161661,7.43638 -5.173135,11.80121 -3.071548,2.58657 -0.323321,1.13162 -1.778266,0.80831 -1.454944,4.20317 -0.808302,3.23321 2.748228,4.20317 1.616605,4.20317 1.131623,3.55653 -0.323321,6.46642 -1.778265,3.07155 -0.646642,5.81978 -0.969963,3.71819 1.778265,3.87985 2.748228,4.52649 2.263247,4.84982 1.293283,4.04151 -0.32332,3.23321 -0.323321,0.48498 0,2.10158 5.658116,6.30476 -0.484981,2.42491 -0.646642,2.26325 -0.646642,1.93992 0.16166,8.24469 2.101586,3.71819 1.939926,2.58656 2.748228,0.48499 0.969963,2.74822 -1.131623,3.55653 -2.101587,1.61661 -1.131623,0 -0.808302,3.87985 0.484981,2.90989 3.23321,4.36483 1.616604,5.3348 1.454944,4.68815 1.293284,3.07155 3.39487,5.81978 1.454944,2.58656 0.484982,2.90989 1.616604,0.96996 0,2.42491 -0.808302,1.93993 -1.778265,7.11306 -0.484982,1.93992 2.424908,2.74823 4.203172,0.48498 4.526493,1.77827 3.879851,2.10158 2.909889,0 2.909888,3.07155 2.586567,4.84982 1.131624,2.26324 3.879851,2.10159 4.849814,0.8083 1.454944,2.10159 0.646642,3.23321 -1.454944,0.64664 0.323321,0.96996 3.233211,0.8083 2.748228,0.16167 2.909889,4.68815 3.879854,4.20317 0.808302,2.26325 2.586568,4.20317 0.323321,3.23321 0,9.37631 0.484981,1.77826 10.022953,1.45495 19.72257,2.74822 z m -87.947713,-49.71668 1.293288,1.53578 -0.16166,1.29329 -3.233221,-0.0808 -0.565814,-1.21246 -0.646644,-1.45495 z m 1.939932,0 1.212458,-0.64664 3.556543,2.10159 3.07156,1.21245 -0.889136,0.64666 -4.526509,-0.2425 -1.61661,-1.61661 z m 20.692614,19.80348 1.778265,2.34408 0.808313,0.96997 1.535779,0.56581 0.565807,-1.45495 -0.969963,-1.77827 -2.667403,-2.02076 -1.050798,0.16166 z m -1.454955,8.64886 1.778276,3.15239 1.212458,1.93994 -1.454954,0.24248 -1.293284,-1.21245 c 0,0 -0.727477,-1.45495 -0.727477,-1.85911 0,-0.40414 0,-2.18242 0,-2.18242 z" />
  <path
     style="fill:#d3d3d3"
     id="Arizona"
     d="m 138.74699,381.13864 -2.62701,2.15833 -0.32332,1.45495 0.48498,0.96996 18.91427,10.66959 12.12454,7.59804 14.7111,8.56801 16.81269,10.02295 12.2862,2.42491 25.12794,2.70491 2.53082,-12.50695 3.75267,-27.24294 6.96486,-52.88116 4.25726,-30.96569 -24.59671,-3.67877 -27.20609,-4.57245 -33.42915,-6.31768 -2.9219,18.09184 -0.45724,0.45725 -1.71467,2.62916 -2.51485,-0.11432 -1.25742,-2.74347 -2.74347,-0.34293 -0.9145,-1.14311 -0.91448,0 -0.9145,0.57156 -1.94329,1.0288 -0.1143,6.97298 -0.22864,1.71467 -0.57154,12.57424 -1.48605,2.17191 -0.57156,3.31503 2.74347,4.91539 1.25742,5.82988 0.80019,1.0288 1.0288,0.57156 -0.11432,2.28622 -1.60035,1.37173 -3.42934,1.71467 -1.94329,1.9433 -1.48605,3.65795 -0.57156,4.91539 -2.85778,2.74347 -2.0576,0.68587 -0.11431,5.82988 -0.45725,1.71467 0.45725,0.80018 3.65796,0.57154 -0.57156,2.74348 -1.48605,2.17191 z" />
  <path
     style="fill:#d3d3d3"
     id="Nevada"
     d="m 141.65786,171.21005 20.98019,4.51122 9.71646,1.9433 9.25921,1.82897 6.61466,1.63333 -0.55837,5.86505 -3.54365,17.32915 -4.09322,19.98029 -1.94329,9.71867 -2.17192,13.28209 -3.15456,16.41465 -3.52166,15.68483 -1.96839,10.18036 -2.46557,16.77072 -0.45724,1.09915 -1.07276,2.46868 -1.87294,-0.11431 -1.09695,-2.74347 -2.74347,-0.50342 -1.39592,-0.98263 -2.03783,0.32096 -0.91449,0.73204 -1.30138,1.34975 -0.43526,6.97298 -0.54959,1.71467 -0.41107,12.09281 -1.3221,1.71416 -1.87642,-2.26153 -14.51752,-22.74795 -19.43292,-29.03506 -22.747944,-33.83614 -12.3815,-18.58204 1.636234,-6.56644 6.972996,-25.94866 7.887479,-31.34785 33.607515,8.14264 13.71736,2.97209" />
  <path
     style="fill:#d3d3d3"
     id="Utah"
     d="m 253.97063,302.94522 -24.64287,-3.4733 -26.56419,-4.8934 -33.82674,-6.01995 1.5887,-9.15697 3.20071,-15.20339 3.31503,-16.57514 2.17192,-13.60304 1.94329,-8.91628 3.77227,-20.46173 3.54365,-17.48962 1.11454,-5.57268 12.71712,2.25765 12.00269,2.0576 10.28801,1.82899 8.34472,1.37174 3.67777,0.47916 -1.4848,10.63042 -2.31162,13.17266 7.80769,0.92837 16.40652,1.80479 8.21097,0.85564 -2.13048,21.96856 -3.20071,22.5655 -3.75267,27.82618 -1.66614,11.1078 z" />
  <path
     style="fill:#d3d3d3"
     id="Colorado"
     d="m 379.62078,250.43452 1.43988,-21.28168 -32.09508,-3.06443 -24.46296,-2.69954 -37.26516,-4.11517 -20.69036,-2.51482 -2.62919,22.17642 -3.20071,22.40502 -3.75266,27.98666 -1.50566,11.1078 -0.2506,2.76326 33.92627,3.79425 37.74071,4.26657 31.96061,3.16587 16.6082,0.84634" />
  <path
     style="fill:#d3d3d3"
     id="NewMexico"
     d="m 283.72425,424.68323 -0.65041,-6.1231 8.64378,0.5254 29.51643,3.0644 28.39316,1.43989 1.96527,-22.33247 3.72608,-55.87597 1.11896,-19.38923 2.01364,0.34953 -0.0143,-11.075 -32.20352,-2.40306 -36.93832,-4.42704 -34.46486,-4.11521 -4.20011,30.75787 -6.96486,53.20211 -3.75266,26.92199 -2.04939,13.30934 15.46067,1.98915 1.29328,-10.02295 16.65103,2.58657 z" />
  <path
     style="fill:#d3d3d3"
     id="Oregon"
     d="m 141.30581,170.32446 4.29765,-17.9007 4.66478,-17.87873 1.05079,-4.22952 2.35437,-5.62323 -0.61551,-1.16288 -2.51486,-0.0462 -1.2816,-1.6707 0.45724,-1.46407 0.50341,-3.24688 4.45815,-5.48695 1.82898,-1.09915 1.14311,-1.14311 1.48604,-3.56563 4.04706,-5.6694 3.56563,-3.862403 0.22862,-3.451317 -3.26886,-2.468682 -1.20889,-4.510042 -13.23829,-3.744553 -15.08909,-3.54365 -15.43202,0.114306 -0.45724,-1.371729 -5.48695,2.057604 -4.45814,-0.571559 -2.40054,-1.600361 -1.25742,0.685875 -4.68676,-0.228632 -1.714666,-1.371729 -5.258326,-2.057604 -0.800181,0.114316 -4.34383,-1.486056 -1.943291,1.828983 -6.172812,-0.342927 -5.944183,-4.115209 0.685865,-0.80018 0.228621,-7.773173 -2.286225,-3.886577 -4.115208,-0.571559 -0.685865,-2.514847 -2.353932,-0.466565 -5.798525,2.058784 -2.263247,6.466418 -3.233209,10.022949 -3.23321,6.466419 -5.011474,14.064461 -6.466419,13.579479 -8.083023,12.60952 -1.939926,2.90989 -0.808302,8.568 -1.293284,5.98144 2.708192,3.52743 6.729861,2.25122 11.591605,3.29304 7.865498,2.53904 12.413763,3.63378 13.328258,3.58982 13.167781,3.56561" />
  <path
     style="fill:#d3d3d3"
     id="NorthDakota"
     d="m 472.30528,121.30669 -0.36491,-7.49617 -1.98945,-7.31592 -1.82899,-13.649221 -0.45724,-9.830778 -1.98946,-3.108392 -1.60036,-5.350646 0,-10.28802 0.68586,-3.886587 -2.11535,-5.499011 -28.4235,-0.564027 -18.59095,-0.646642 -26.51232,-1.293284 -24.94634,-1.883869 -1.26072,14.230663 -1.37174,15.089104 -2.25848,24.9476 -0.48618,11.02022 56.81612,3.76415 z" />
  <path
     style="fill:#d3d3d3"
     id="SouthDakota"
     d="m 473.79706,196.81913 -0.9537,-1.08087 -1.52071,-3.62669 1.82898,-3.70192 1.05078,-5.55509 -2.58299,-2.05761 -0.29677,-2.74346 0.59353,-2.99629 2.14994,-0.80239 0.29677,-5.73534 -0.0681,-30.08586 -0.61773,-2.97209 -4.11521,-3.58981 -0.98263,-1.98946 0,-1.92132 1.89712,-1.2794 1.53222,-1.85317 0.18246,-2.71929 -57.38209,-1.60035 -56.17421,-3.88659 -0.7667,5.27936 -1.61301,15.86824 -1.34521,17.94687 -1.60035,24.59672 16.02777,1.0288 19.63735,1.14311 17.99305,1.30359 23.77676,1.30358 10.74526,-0.77819 2.85999,2.28623 4.31964,2.9721 0.98264,0.754 3.54144,-0.89031 4.04707,-0.29676 2.74347,-0.0682 3.1128,1.21127 4.54826,1.43988 3.13256,1.76083 0.61773,1.92131 0.91449,1.89713 0.70565,-0.48144 z" />
  <path
     style="fill:#d3d3d3"
     id="Nebraska"
     d="m 485.24444,240.62793 1.37174,2.67533 0.0923,2.12575 2.35437,3.72611 2.71929,3.15234 -5.04948,0 -43.48256,-0.93868 -40.78686,-0.8903 -21.19156,-0.96065 1.07277,-21.32785 -33.3789,-2.74347 4.34383,-44.00986 15.54633,1.02881 20.11879,1.1431 17.83257,1.14312 23.77676,1.14311 10.74526,-0.45724 2.0576,2.28622 4.80108,2.9721 1.14311,0.91449 4.34383,-1.37174 3.88659,-0.45724 2.74347,-0.22863 1.82898,1.37174 5.0297,1.60036 2.97209,1.60036 0.45725,1.60036 0.91449,2.0576 1.82898,0 0.79798,0.0462 0.98262,5.21215 2.74348,8.02598 1.23545,4.64059 2.12574,3.81845 0.52539,4.93736 1.43989,4.27568 0.54957,6.4696" />
  <path
     style="fill:#d3d3d3"
     id="Iowa"
     d="m 567.59351,195.26666 0.17063,1.94245 2.28622,1.13976 1.14144,1.25658 0.34376,1.26161 3.88659,3.2024 0.68587,2.17275 -0.79934,2.86197 -1.48856,3.54448 -0.79934,2.74179 -2.17275,1.60204 -1.71551,0.5724 -5.48527,1.4852 -0.68587,2.28289 -0.79934,2.28455 0.57239,1.37174 1.71551,1.71384 -0.002,3.66129 -2.1694,1.60036 -0.45891,1.48689 0,2.51652 -1.48856,0.45724 -1.71384,1.37007 -0.45557,1.48521 0.45557,1.71718 -1.37424,1.20445 -2.29376,-2.69133 -1.48354,-2.62665 -8.34053,0.79933 -10.1712,0.57073 -25.0367,0.68755 -13.03484,0.22862 -9.37352,0.22862 -1.31578,0.12125 -1.65465,-4.47177 -0.22862,-6.63007 -1.60036,-4.11521 -0.68586,-5.25831 -2.28623,-3.65797 -0.91448,-4.80107 -2.74348,-7.54455 -1.14311,-5.37264 -1.37174,-2.17191 -1.60036,-2.74346 1.82898,-4.34383 1.37174,-5.71557 -2.74347,-2.05761 -0.45725,-2.74347 0.9145,-2.51485 1.71467,0 11.54544,0 49.61111,-0.68587 19.87678,-0.68586 1.85073,2.74681 1.83234,2.62163 0.45557,0.80437 -1.83066,2.74849 0.45557,4.22199 2.51486,3.88659 2.96874,1.82395 2.40472,0.2303 z" />
  <path
     style="fill:#d3d3d3"
     id="Mississippi"
     d="m 625.55882,460.60781 -0.25426,1.25615 -5.17314,0 -1.45494,-0.8083 -2.10159,-0.32332 -6.78974,1.93992 -1.77826,-0.8083 -2.58657,4.20317 -1.10254,0.77802 -1.12383,-2.48798 -1.14312,-3.88659 -3.42933,-3.20071 1.1431,-7.54455 -0.68586,-0.91449 -1.82898,0.22862 -8.23042,0.68587 -24.234,0.68587 -0.45724,-1.60036 0.68587,-8.0018 3.42934,-6.17281 5.25832,-9.1449 -0.91449,-2.0576 1.14311,0 0.68587,-3.20072 -2.28623,-1.82898 0.22863,-1.82898 -2.05761,-4.57245 -0.28578,-5.34406 1.37173,-2.65774 -0.40008,-4.34383 -1.37174,-2.9721 1.37174,-1.37173 -1.37174,-2.0576 0.45725,-1.82898 0.91449,-6.17282 2.97209,-2.74346 -0.68587,-2.05761 3.65797,-5.25833 2.74347,-0.91448 0,-2.51485 -0.68587,-1.37174 2.74347,-5.25831 2.74347,-1.14312 0.10744,-3.41208 8.67545,-0.0774 24.08745,-1.93992 4.58058,-0.22863 0.008,6.37172 0.16166,16.65106 -0.8083,31.03885 -0.16166,14.06449 2.74824,18.75264 z" />
  <path
     style="fill:#d3d3d3"
     id="Indiana"
     d="m 619.42049,294.49343 0.0653,-2.85858 0.48499,-4.52651 2.26324,-2.90988 1.77828,-3.87987 2.58656,-4.20317 -0.48498,-5.81979 -1.77826,-2.74823 -0.32332,-3.23321 0.8083,-5.49647 -0.48498,-6.95141 -1.2933,-16.00441 -1.29328,-15.35776 -0.97047,-11.72002 3.07106,0.88951 1.45495,0.96996 1.13162,-0.32332 2.10159,-1.93992 2.82957,-1.61699 5.0928,-0.16204 21.98587,-2.26326 5.57573,-0.53316 1.50314,15.95621 4.25135,36.84155 0.59846,5.7716 -0.3715,2.26325 1.22798,1.79537 0.0964,1.37255 -2.52129,1.59951 -3.53943,1.55131 -3.20213,0.55028 -0.59846,4.86693 -4.57469,3.31247 -2.79642,4.01044 0.32332,2.37673 -0.58134,1.5342 -3.32647,0 -1.58553,-1.6166 -2.49331,1.2622 -2.68296,1.50314 0.16167,3.05445 -1.19379,0.25803 -0.46788,-1.01814 -2.16688,-1.50314 -3.25032,1.34148 -1.55131,3.00625 -1.43784,-0.8083 -1.45495,-1.59951 -4.46434,0.48499 -5.59283,0.96996 z" />
  <path
     style="fill:#282A53"
     id="Illinois"
     d="m 618.80493,295.23956 0,-3.60471 0.25803,-4.86693 2.37672,-3.13683 1.77827,-3.7664 2.58657,-3.86275 -0.3715,-5.2524 -2.00521,-3.54257 -0.0964,-3.34668 0.69483,-5.26951 -0.82541,-7.17837 -1.06634,-15.77745 -1.29328,-15.01734 -0.92228,-11.6392 -0.27251,-0.92139 -0.8083,-2.58657 -1.29328,-3.71819 -1.61661,-1.77827 -1.45494,-2.58656 -0.23357,-5.48896 -9.90267,1.31224 -27.20609,1.71467 -8.68767,-0.42866 0.22862,2.37195 2.28623,0.68587 0.91448,1.14311 0.45725,1.82898 3.88658,3.42934 0.68588,2.28623 -0.68588,3.42934 -1.82898,3.65796 -0.68586,2.51484 -2.28623,1.82899 -1.82898,0.68587 -5.25832,1.37173 -0.68587,1.82898 -0.68587,2.05761 0.68587,1.37174 1.82898,1.60036 -0.22862,4.1152 -1.82899,1.60036 -0.68586,1.60036 0,2.74347 -1.82898,0.45724 -1.60036,1.14312 -0.22862,1.37174 0.22862,2.0576 -1.71467,1.31457 -1.0288,2.80064 0.45724,3.65795 2.28623,7.31593 7.31593,7.54455 5.48693,3.65796 -0.22862,4.34383 0.9145,1.37174 6.40143,0.45724 2.74347,1.37174 -0.68586,3.65796 -2.28623,5.94419 -0.68587,3.20072 2.28622,3.88658 6.40144,5.25832 4.57246,0.68587 2.05759,5.0297 2.05761,3.20071 -0.91449,2.97209 1.60036,4.11521 1.82898,2.05761 1.94436,-0.7923 0.68669,-2.16318 2.0363,-1.43784 3.23633,-1.10054 3.08866,1.1798 2.87569,1.06634 0.7912,-0.20984 -0.0653,-1.24198 -1.06633,-2.76534 0.4368,-2.37672 2.28034,-1.56843 2.35963,-0.98706 1.16271,-0.41969 -0.58136,-1.32438 -0.76012,-2.16687 1.2451,-1.26221 z" />
  <path
     style="fill:#d3d3d3"
     id="Minnesota"
     d="m 472.87905,122.10907 -0.45725,-8.45904 -1.82898,-7.31592 -1.82898,-13.488731 -0.45725,-9.830778 -1.82898,-3.429343 -1.60036,-5.029695 0,-10.28802 0.68586,-3.886587 -1.82093,-5.451667 30.13242,0.03527 0.32332,-8.244684 0.64664,-0.161661 2.26325,0.484982 1.93992,0.808302 0.8083,5.496456 1.45495,6.143098 1.6166,1.616605 4.84982,0 0.32332,1.454944 6.30476,0.323321 0,2.101586 4.84981,0 0.32332,-1.293284 1.13162,-1.131623 2.26325,-0.646642 1.29328,0.969963 2.90989,0 3.87985,2.586567 5.3348,2.424907 2.42491,0.484982 0.48498,-0.969963 1.45494,-0.484982 0.48498,2.909889 2.58657,1.293284 0.48498,-0.484982 1.29329,0.161661 0,2.101586 2.58656,0.969963 3.07155,0 1.61661,-0.808303 3.23321,-3.233209 2.58656,-0.484981 0.80831,1.778265 0.48498,1.293283 0.96996,0 0.96996,-0.808302 8.89133,-0.323321 1.77826,3.071549 0.64665,0 0.71361,-1.084279 4.43991,-0.370665 -0.6121,2.279459 -3.93872,1.837125 -9.24578,4.061128 -4.77474,2.006897 -3.07155,2.586568 -2.42491,3.55653 -2.26324,3.879851 -1.77827,0.808308 -4.52649,5.01147 -1.29329,0.16166 -3.84164,2.933903 -2.81644,3.16091 -0.22862,2.97042 0.22695,7.77819 -1.59702,1.60036 -5.25831,4.11352 -1.83233,5.71725 2.51819,3.64792 0.45892,2.51987 -1.14813,2.97377 -0.22696,3.65963 0.45725,7.08395 3.426,4.10685 2.97544,0 2.50983,2.29291 3.20239,1.36505 3.65964,5.03472 7.08729,5.023 1.83065,2.06262 0.23365,5.50201 -20.58775,0.68587 -60.24875,0.45892 -0.33792,-35.67685 -0.45724,-2.97209 -4.11521,-3.42934 -1.14312,-1.82898 0,-1.60037 2.0576,-1.60035 1.37174,-1.37174 z" />
  <path
     style="fill:#d3d3d3"
     id="Wisconsin"
     d="m 613.94089,190.81939 0.37076,-2.96992 -1.61661,-4.5265 -0.64664,-6.14309 -1.13162,-2.42491 0.96996,-3.07155 0.8083,-2.90989 1.45495,-2.58656 -0.64665,-3.39487 -0.64664,-3.55653 0.48498,-1.77827 1.93993,-2.42491 0.16166,-2.74823 -0.8083,-1.29328 0.64664,-2.58657 0.48498,-3.23321 2.74823,-5.65811 2.90989,-6.78974 0.16166,-2.26325 -0.32332,-0.96996 -0.80831,0.48498 -4.20317,6.30476 -2.74823,4.04151 -1.93992,1.77827 -0.8083,2.26324 -1.45495,0.8083 -1.13162,1.93993 -1.45495,-0.32332 -0.16166,-1.77827 1.29329,-2.4249 2.10158,-4.68816 1.77827,-1.6166 1.10132,-2.29156 -1.63066,-0.90525 -1.37174,-1.37174 -1.60036,-10.28802 -3.65795,-1.14311 -1.37174,-2.28623 -12.57425,-2.74347 -2.51485,-1.14311 -8.23041,-2.28623 -8.23042,-1.14312 -4.16946,-5.4048 -0.52943,1.26111 -1.13162,-0.16166 -0.64665,-1.13162 -2.74822,-0.8083 -1.13163,0.16166 -1.77826,0.96996 -0.96997,-0.64664 0.64665,-1.93993 1.93992,-3.071553 1.13162,-1.13162 -1.93992,-1.45494 -2.10159,0.8083 -2.90989,1.939923 -7.43638,3.23321 -2.90989,0.64664 -2.90988,-0.48498 -0.98173,-0.87825 -2.1167,2.83518 -0.22862,2.74347 0,8.45903 -1.14312,1.60037 -5.25832,3.88657 -2.28622,5.94419 0.45724,0.22862 2.51485,2.05761 0.68586,3.20072 -1.82898,3.20071 0,3.88659 0.45725,6.63005 2.97209,2.9721 3.42935,0 1.82898,3.20072 3.42933,0.45724 3.88659,5.71557 7.0873,4.11521 2.0576,2.74347 0.9145,7.43024 0.68586,3.31502 2.28623,1.60036 0.22862,1.37174 -2.0576,3.42933 0.22862,3.20073 2.51485,3.88658 2.51485,1.14311 2.97209,0.45724 1.34234,1.38012 9.1735,-2e-5 26.06713,-1.48687 z" />
  <path
     style="fill:#d3d3d3"
     id="Missouri"
     d="m 556.78857,243.16561 -2.51987,-3.08725 -1.14312,-2.28623 -7.77316,0.68587 -9.83078,0.45724 -25.37711,0.9145 -13.48873,0.22862 -7.88745,0.11431 -2.28626,0.11431 1.25743,2.51485 -0.22862,2.28622 2.51484,3.88659 3.0864,4.11521 3.08641,2.74347 2.28623,0.22862 1.37173,0.9145 0,2.97209 -1.82897,1.60036 -0.45726,2.28622 2.05761,3.42935 2.51486,2.97209 2.51484,1.82898 1.37173,11.65975 -0.68586,35.32221 0.22862,4.68675 0.45724,5.38351 23.43299,-0.11682 23.20603,-0.68587 20.80466,-0.80101 11.65474,-0.2303 2.1694,3.426 -0.68419,3.3075 -3.08725,2.40304 -0.57239,1.83734 5.37849,0.45726 3.89496,-0.68588 1.71718,-5.49363 0.65142,-5.85679 2.319,-2.02483 1.71215,-1.48689 2.05761,-1.02964 0.11514,-2.86029 0.57408,-1.71551 -1.03132,-1.74827 -2.74514,0.14457 -2.1694,-2.62499 -1.37342,-4.22867 0.80101,-2.5182 -1.94413,-3.42766 -1.83064,-4.5758 -4.79941,-0.79934 -6.9688,-5.59875 -1.71886,-4.11353 0.79935,-3.20072 2.05927,-6.05767 0.45892,-2.86363 -1.94914,-1.03131 -6.85534,-0.79767 -1.02797,-1.71216 -0.1118,-4.23036 -5.48694,-3.43101 -6.97551,-7.7715 -2.28622,-7.31593 -0.23029,-4.22532 z" />
  <path
     style="fill:#d3d3d3"
     id="Arkansas"
     d="m 591.95215,338.59154 -3.8473,0.93767 -6.17281,-0.45725 0.68587,-2.97209 3.20072,-2.74347 0.45724,-2.28623 -1.82898,-2.9721 -10.97389,0.45725 -20.80466,0.91449 -23.31951,0.68587 -23.31951,0.45724 1.60036,6.85869 -1e-5,8.23042 1.37175,10.97399 0.22862,37.83693 2.28623,1.94329 2.97209,-1.37173 2.74348,1.14311 0.43034,10.3233 22.88582,-0.14205 18.86387,-0.80102 10.12157,-0.19753 1.14563,-2.09037 -0.28662,-3.54951 -1.82563,-2.9721 1.59869,-1.48521 -1.59869,-2.5115 0.6842,-2.50983 1.36839,-5.60543 2.51819,-2.06263 -0.68587,-2.28456 3.65797,-5.37179 2.74347,-1.36839 -0.11348,-1.49358 -0.34544,-1.82564 2.85695,-5.59873 2.40304,-1.25659 0.38413,-3.42763 1.77067,-1.2417 0.85648,-4.23427 -1.34146,-4.01044 4.04152,-2.37671 0.55026,-2.0192 1.23528,-4.26758 z" />
  <path
     style="fill:#d3d3d3"
     id="Oklahoma"
     d="m 376.34313,316.20969 -10.68815,-0.45719 -6.43001,-0.48582 0.2572,0.20003 -0.70344,10.4221 21.96538,1.40688 32.05555,1.3036 -2.3346,24.41865 -0.45725,17.83257 0.22863,1.60036 4.34383,3.65796 2.0576,1.14311 0.68587,-0.22862 0.68587,-2.05761 1.37174,1.82899 2.0576,0 0,-1.37174 2.74347,1.37174 -0.45724,3.88658 4.11521,0.22862 2.51484,1.14312 4.11521,0.68587 2.51485,1.82898 2.28623,-2.0576 3.42934,0.68586 2.51485,3.42934 0.91448,0 0,2.28623 2.28623,0.68586 2.28622,-2.28622 1.82899,0.68586 2.51484,0 0.9145,2.51486 4.80107,1.82897 1.37174,-0.68586 1.82898,-4.11521 1.14311,0 1.14312,2.0576 4.11521,0.68587 3.65795,1.37174 2.9721,0.91449 1.82899,-0.91449 0.68586,-2.51485 4.34383,0 2.0576,0.91449 2.74347,-2.05761 1.14312,0 0.68587,1.60036 4.1152,0 1.60036,-2.0576 1.82899,0.45724 2.0576,2.51486 3.20071,1.82897 3.20073,0.9145 1.94108,1.11893 -0.3891,-37.21701 -1.37175,-10.97398 -0.16046,-8.87234 -1.43989,-6.53773 -0.7782,-7.17964 -0.0681,-3.81622 -12.13684,0.31874 -46.41004,-0.45724 -45.03891,-2.05762 z" />
  <path
     style="fill:#d3d3d3"
     id="Kansas"
     d="m 504.38059,318.76851 -12.61826,0.20443 -46.08909,-0.45723 -44.55748,-2.05763 -24.62974,-1.25741 4.14379,-64.71997 21.83346,0.80017 40.46591,1.37173 44.12446,0.45725 5.09563,0 3.2469,3.2249 2.76766,0.22862 0.8903,1.07497 0,2.00923 -1.82898,1.60037 -0.45725,2.60717 2.21808,3.58983 2.51486,3.13256 2.51485,1.98946 1.05077,11.17832 z" />
  <path
     style="fill:#d3d3d3"
     id="Louisiana"
     d="m 603.20213,466.63296 -1.02945,-2.61622 -1.14312,-3.09226 -3.31586,-3.54114 0.91616,-6.75023 -0.11849,-1.14143 -1.26161,0.3421 -8.23042,0.91281 -25.02832,0.45892 -0.68419,-2.39468 0.91281,-8.4557 3.31588,-5.94585 5.03136,-8.69102 -0.57407,-2.39802 1.25659,-0.68085 0.45893,-1.95249 -2.28624,-2.05593 -0.11179,-1.94245 -1.83066,-4.34551 -0.45641,-5.94085 -9.72483,0.11348 -19.2043,0.9145 -22.20497,0.0286 0.0286,9.57357 0.68587,9.37353 0.68587,3.88658 2.51485,4.11521 0.91449,5.02971 4.34383,5.48693 0.22862,3.20072 0.68587,0.68587 -0.68587,8.45904 -2.97209,5.02969 1.60036,2.05761 -0.68588,2.51484 -0.68586,7.31593 -1.37174,3.20071 0.12246,3.61645 4.68648,-1.52015 8.08302,-0.32332 10.34627,3.55653 6.46642,1.13163 3.71819,-1.45495 3.23321,1.13163 3.23321,0.96996 0.8083,-2.10159 -3.23321,-1.13162 -2.58657,0.48498 -2.74823,-1.6166 c 0,0 0.16167,-1.29329 0.80831,-1.45495 0.64664,-0.16166 3.07155,-0.96996 3.07155,-0.96996 l 1.77826,1.45494 1.77827,-0.96996 3.23321,0.64664 1.45494,2.42491 0.32332,2.26325 4.52649,0.32332 1.77827,1.77826 -0.8083,1.61661 -1.29329,0.8083 1.61661,1.6166 8.40634,3.55653 3.55653,-1.29328 0.96997,-2.42491 2.58656,-0.64664 1.77827,-1.45494 1.29328,0.96996 0.8083,2.90989 -2.26324,0.8083 0.64664,0.64664 3.39487,-1.29328 2.26325,-3.39487 0.8083,-0.48498 -2.10159,-0.32332 0.8083,-1.61661 -0.16166,-1.45494 2.10159,-0.48498 1.13162,-1.29329 0.64664,0.8083 c 0,0 -0.16166,3.07155 0.64665,3.07155 0.8083,0 4.20317,0.64665 4.20317,0.64665 l 4.04151,1.93992 0.96996,1.45495 2.90989,0 1.13163,0.96996 2.26324,-3.07155 0,-1.45495 -1.29328,0 -3.39487,-2.74822 -5.81978,-0.80831 -3.23321,-2.26324 1.13163,-2.74823 2.26324,0.32332 0.16166,-0.64664 -1.77826,-0.96996 0,-0.48499 3.23321,0 1.77826,-3.07154 -1.29328,-1.93993 -0.32332,-2.74823 -1.45495,0.16166 -1.93992,2.10159 -0.64664,2.58657 -3.07155,-0.64665 -0.96997,-1.77826 1.77827,-1.93993 2.02075,-1.77825 z" />
  <path
     style="fill:#d3d3d3"
     id="Virginia"
     d="m 829.90662,262.88393 -0.14391,-1.94703 6.45343,-2.54988 -0.77041,3.21784 -2.91995,3.77911 -0.41809,4.58582 0.46175,3.39044 -1.82797,4.97816 -2.16427,1.91614 -1.47034,-4.64081 0.44589,-5.44911 1.587,-4.18307 z m 2.27953,28.30136 -58.17418,12.57543 -37.42697,5.27907 -6.67833,-0.37518 -2.58525,1.92638 -7.33913,0.22069 -8.38211,0.97767 -8.92622,0.95171 8.48069,-4.94829 -0.0131,-2.07493 1.52005,-2.14613 10.55378,-11.50143 3.94672,4.47746 3.78301,0.96398 2.54346,-1.14032 2.23722,-1.31116 2.53661,1.34352 3.91417,-1.42776 1.87673,-4.55634 2.60092,0.54002 2.85524,-2.13125 1.79927,0.4936 2.82721,-3.67657 0.34825,-2.08311 -0.96366,-1.27557 1.00277,-1.86663 5.27427,-12.27715 0.61677,-5.73508 1.22889,-0.52354 2.17853,2.44287 3.93586,-0.30117 1.92921,-7.57363 2.79399,-0.56086 1.04975,-2.74107 2.57982,-2.34688 1.26797,-2.34221 1.50386,-3.35298 0.0849,-5.06755 9.82151,3.82282 c 0.68085,0.34042 0.6561,-4.78398 0.6561,-4.78398 l 4.05031,1.37735 -0.462,2.6288 8.15611,2.93966 1.29287,1.79439 -0.86794,3.68214 -1.26308,1.32582 -0.50592,1.74604 0.49391,2.40272 1.95898,1.27838 3.91809,1.44521 2.94867,0.96796 4.85647,0.94211 2.15231,2.08846 3.19044,0.40253 0.86807,1.20002 -0.43949,4.69008 1.37473,1.10255 -0.47895,1.93039 1.22941,0.78977 -0.2218,1.3846 -2.69399,-0.0949 0.089,1.61552 2.28099,1.54287 0.12154,1.4119 1.77311,1.78538 0.49179,2.52413 -2.55304,1.38131 1.57222,1.4943 5.80102,-1.68583 z" />
  <path
     style="fill:#d3d3d3"
     id="Columbia"
     d="m 802.75695,247.48207 -1.07703,-1.63667 -1.01388,-0.84254 1.09926,-1.61622 2.23284,1.511 z" />
  



  
  <path
     d="m 212,486.63823 v 55 l 36,45 m -247,-168 h 144 l 67,68 h 86 l 53,54 v 46"
     id="path4917"
     style="fill:none;stroke:#a9a9a9;stroke-width:2" />
</svg>
